<svg id="visual" viewBox="0 0 900 600" width="900" height="600" xmlns="http://www.w3.org/2000/svg" xmlns:xlink="http://www.w3.org/1999/xlink" version="1.1"><rect x="0" y="0" width="900" height="600" fill="#fff"></rect><defs><linearGradient id="grad1_0" x1="33.3%" y1="0%" x2="100%" y2="100%"><stop offset="20%" stop-color="#ffffff" stop-opacity="1"></stop><stop offset="80%" stop-color="#ffffff" stop-opacity="1"></stop></linearGradient></defs><defs><linearGradient id="grad2_0" x1="0%" y1="0%" x2="66.7%" y2="100%"><stop offset="20%" stop-color="#ffffff" stop-opacity="1"></stop><stop offset="80%" stop-color="#ffffff" stop-opacity="1"></stop></linearGradient></defs><g transform="translate(900, 0)"><path d="M0 459.7C-45.3 414.7 -90.6 369.8 -145.4 351.1C-200.3 332.4 -264.7 340 -315.4 315.4C-366 290.7 -403 233.9 -424.7 175.9C-446.5 118 -453.1 59 -459.7 0L0 0Z" fill="#00867e"></path></g><g transform="translate(0, 600)"><path d="M0 -459.7C67.7 -460.5 135.3 -461.4 175.9 -424.7C216.5 -388.1 230 -314 269.4 -269.4C308.8 -224.9 374.2 -209.9 410.2 -169.9C446.2 -129.9 453 -65 459.7 0L0 0Z" fill="#00867e"></path></g></svg>