<?xml version="1.0" standalone="no"?>
<!DOCTYPE svg PUBLIC "-//W3C//DTD SVG 20010904//EN"
 "http://www.w3.org/TR/2001/REC-SVG-20010904/DTD/svg10.dtd">
<svg version="1.0" xmlns="http://www.w3.org/2000/svg"
 width="750.000000pt" height="750.000000pt" viewBox="0 0 750.000000 750.000000"
 preserveAspectRatio="xMidYMid meet">

<g transform="translate(0.000000,750.000000) scale(0.100000,-0.100000)"
fill="#000000" stroke="none">
<path d="M5237 6638 c-20 -11 -43 -30 -49 -42 -6 -11 -14 -23 -17 -26 -3 -3
-11 -14 -17 -25 -7 -12 -28 -23 -53 -28 -59 -12 -84 -52 -76 -125 4 -45 2 -58
-20 -90 -29 -43 -31 -71 -9 -114 11 -22 14 -45 10 -74 -9 -69 8 -100 70 -128
30 -14 54 -30 54 -35 0 -6 13 -11 28 -11 25 0 30 -6 40 -37 6 -21 14 -58 17
-83 4 -25 11 -57 16 -71 8 -21 5 -39 -15 -89 -39 -96 -39 -98 65 -158 94 -55
119 -59 139 -22 6 11 17 17 24 14 8 -3 17 0 21 5 3 6 10 9 15 6 5 -3 -7 -28
-26 -56 -36 -54 -38 -64 -25 -119 4 -20 5 -43 2 -52 -6 -16 -273 -236 -323
-266 -31 -18 -42 -41 -61 -127 -8 -33 -21 -75 -30 -92 -21 -40 -95 -103 -129
-110 -72 -14 9 -68 84 -57 99 15 189 84 427 324 190 192 221 231 221 280 0 26
-6 42 -17 49 -14 8 -11 12 22 25 47 20 69 17 72 -9 1 -11 3 -39 5 -62 2 -24 6
-43 11 -43 4 0 7 -9 7 -19 0 -11 5 -23 11 -26 7 -5 9 8 4 41 -9 70 -26 134
-36 134 -5 0 -6 14 -2 30 5 27 3 30 -21 30 -29 0 -33 11 -11 30 8 7 14 22 13
34 -2 21 -4 22 -31 8 -36 -18 -49 -6 -19 18 34 28 29 50 -13 50 -24 0 -35 -5
-35 -15 0 -8 -4 -15 -10 -15 -13 0 -13 27 0 35 15 9 2 25 -21 25 -16 0 -19 7
-19 44 0 48 -13 65 -64 81 -66 21 -33 105 72 187 69 53 112 117 112 165 0 38
21 80 50 102 27 19 30 27 30 76 0 29 5 57 10 60 13 8 13 61 -1 86 -7 14 -7 30
1 54 14 41 3 66 -40 92 -17 9 -30 22 -30 28 0 17 -50 65 -78 76 -14 6 -49 7
-77 4 -41 -6 -54 -3 -65 10 -40 48 -145 60 -213 23z"/>
<path d="M3145 6638 c-60 -16 -108 -58 -128 -114 -9 -27 -17 -58 -17 -69 0
-11 -8 -32 -17 -45 -25 -35 -24 -145 2 -184 17 -25 19 -26 26 -10 3 11 9 44
13 74 10 79 13 82 70 65 63 -19 172 -19 226 0 58 20 70 19 70 -8 0 -13 11 -33
25 -45 18 -16 25 -32 25 -57 0 -36 43 -135 59 -135 5 0 24 6 43 14 29 13 39
13 61 1 25 -13 27 -12 42 17 21 43 21 191 0 212 -8 8 -15 19 -15 25 0 6 -4 11
-9 11 -4 0 -27 29 -50 64 -70 109 -149 164 -268 186 -67 12 -104 12 -158 -2z"/>
<path d="M2010 6379 c-78 -13 -138 -45 -191 -100 -68 -72 -94 -193 -66 -311
29 -122 29 -336 0 -357 -5 -3 -17 -24 -28 -46 -10 -22 -26 -48 -35 -59 -24
-29 -19 -136 7 -170 l21 -27 17 23 c8 13 29 42 45 64 38 55 80 85 168 118 48
18 72 33 72 44 0 32 -42 102 -73 121 -119 74 -174 203 -148 344 12 64 60 141
111 177 l29 20 47 -45 c25 -25 77 -60 115 -78 38 -18 69 -38 69 -45 0 -35 70
-132 94 -132 6 0 22 9 36 20 28 22 80 26 98 8 37 -37 -16 -128 -76 -128 -25 0
-31 -6 -45 -42 -25 -69 -36 -119 -39 -182 l-3 -59 105 -37 c58 -21 122 -45
143 -54 l37 -16 11 27 c27 72 19 123 -39 252 -36 81 -49 144 -57 281 -6 109
-11 132 -37 187 -53 112 -125 167 -261 198 -38 8 -69 14 -70 14 -1 -1 -27 -5
-57 -10z"/>
<path d="M4390 6367 c-118 -27 -219 -99 -262 -189 -9 -18 -24 -62 -34 -98 -16
-59 -24 -71 -91 -134 -65 -61 -73 -72 -73 -105 0 -28 8 -45 30 -68 76 -77 58
-135 -69 -223 -27 -19 -58 -50 -68 -67 -16 -30 -16 -37 -3 -75 11 -33 27 -51
64 -76 27 -18 56 -31 64 -30 8 2 22 24 32 50 33 88 56 115 118 138 31 12 79
27 105 33 l48 12 -6 49 c-4 26 -18 82 -31 123 -13 42 -24 81 -24 88 0 15 -22
25 -54 25 -49 0 -88 75 -62 115 21 31 63 33 100 4 15 -11 33 -18 41 -15 20 7
75 95 75 118 0 12 23 29 76 54 42 20 93 53 115 75 21 21 45 39 53 39 14 0 82
-69 111 -114 15 -22 19 -49 19 -129 1 -138 -13 -173 -108 -265 -69 -66 -104
-123 -94 -153 2 -5 34 -21 71 -34 89 -31 126 -60 160 -129 16 -30 33 -58 38
-62 13 -8 56 32 76 70 9 18 13 40 9 60 -8 36 -45 115 -63 134 -7 7 -13 17 -13
22 0 5 -6 15 -12 22 -15 15 -38 77 -38 101 0 9 18 52 40 95 l40 78 -17 44
c-10 25 -20 47 -24 50 -22 17 -38 85 -41 175 -3 80 -7 106 -23 128 -45 61
-164 89 -275 64z"/>
<path d="M3068 6219 c-32 -18 -19 -29 32 -29 36 0 50 4 50 14 0 25 -50 34 -82
15z"/>
<path d="M3225 6209 c-10 -16 0 -22 49 -26 51 -5 71 12 31 27 -34 13 -72 13
-80 -1z"/>
<path d="M3083 6125 c-3 -9 -3 -18 0 -22 10 -10 37 6 37 22 0 20 -29 20 -37 0z"/>
<path d="M3250 6115 c0 -16 6 -25 15 -25 21 0 31 30 14 41 -23 14 -29 11 -29
-16z"/>
<path d="M1843 6064 c-7 -3 -13 -12 -13 -20 0 -10 14 -14 51 -14 43 0 50 3 47
18 -3 17 -58 27 -85 16z"/>
<path d="M4553 6060 c-40 -16 -25 -30 32 -30 56 0 65 6 43 28 -14 14 -43 15
-75 2z"/>
<path d="M1995 6051 c-8 -13 3 -18 63 -26 53 -7 54 -7 43 14 -9 16 -21 21 -56
21 -24 0 -46 -4 -50 -9z"/>
<path d="M4373 6054 c-7 -3 -13 -12 -13 -20 0 -11 12 -14 53 -11 37 2 52 7 52
17 0 15 -66 25 -92 14z"/>
<path d="M3510 5980 c0 -5 5 -10 10 -10 6 0 10 5 10 10 0 6 -4 10 -10 10 -5 0
-10 -4 -10 -10z"/>
<path d="M1857 5973 c-16 -15 -6 -34 15 -31 29 4 38 38 10 38 -10 0 -22 -3
-25 -7z"/>
<path d="M2016 5963 c-11 -29 26 -43 50 -18 13 12 12 15 -5 25 -27 14 -38 13
-45 -7z"/>
<path d="M4565 5970 c-9 -15 3 -30 25 -30 18 0 34 23 23 34 -10 10 -41 7 -48
-4z"/>
<path d="M4390 5962 c0 -12 22 -32 36 -32 6 0 14 9 17 20 4 17 0 20 -24 20
-16 0 -29 -4 -29 -8z"/>
<path d="M1960 5839 c0 -5 5 -7 10 -4 6 3 10 8 10 11 0 2 -4 4 -10 4 -5 0 -10
-5 -10 -11z"/>
<path d="M4500 5839 c0 -5 5 -7 10 -4 6 3 10 8 10 11 0 2 -4 4 -10 4 -5 0 -10
-5 -10 -11z"/>
<path d="M3534 5654 c11 -28 16 -117 8 -130 -4 -6 -23 -16 -43 -23 -67 -22
-89 -57 -104 -167 -27 -202 -27 -210 -10 -228 24 -24 65 -21 65 4 0 17 -5 19
-25 14 -23 -6 -25 -3 -25 27 0 19 7 87 14 153 13 106 17 121 42 147 22 23 37
29 69 29 93 0 111 -45 91 -228 -9 -73 -18 -137 -22 -143 -3 -6 -17 -8 -30 -5
-17 5 -24 2 -24 -8 0 -20 11 -25 42 -19 35 7 43 32 59 194 14 144 9 171 -41
204 -27 18 -30 26 -31 75 -2 73 -11 112 -28 118 -10 3 -12 0 -7 -14z"/>
<path d="M3100 5609 c-18 -42 -20 -61 -14 -98 l8 -46 6 60 c3 33 13 74 23 92
19 36 21 43 8 43 -5 0 -19 -23 -31 -51z"/>
<path d="M1971 5507 c-6 -8 -14 -27 -17 -43 -5 -26 2 -36 64 -96 38 -36 72
-72 74 -80 3 -7 9 -10 13 -5 10 9 -27 92 -78 175 -21 34 -40 62 -42 62 -1 0
-8 -6 -14 -13z"/>
<path d="M2231 5484 c-11 -15 -21 -30 -21 -34 0 -4 -18 -39 -40 -76 -22 -38
-40 -73 -40 -78 0 -4 31 21 69 57 38 36 79 68 90 72 22 7 26 16 14 29 -4 4 -8
17 -8 29 0 33 -38 34 -64 1z"/>
<path d="M3044 5386 c-31 -22 -36 -54 -13 -77 26 -26 60 -23 83 7 18 25 18 27
-1 52 -24 33 -41 37 -69 18z"/>
<path d="M1845 5349 c-7 -10 -64 -128 -90 -184 -7 -16 -17 -40 -20 -53 -4 -13
-11 -20 -18 -16 -7 4 -9 4 -5 -1 4 -4 4 -13 -1 -19 -5 -6 -3 -23 4 -39 l11
-28 14 43 c26 87 44 134 65 168 12 19 29 59 37 88 15 51 16 63 3 41z"/>
<path d="M4415 5277 c-33 -12 -63 -26 -66 -31 -4 -5 -19 -6 -34 -2 -15 4 -47
4 -71 0 l-44 -6 0 -174 c0 -110 4 -174 10 -174 21 0 361 130 388 148 15 10 48
26 74 36 61 22 72 38 75 102 l2 53 -62 0 c-51 0 -75 6 -135 35 -40 20 -74 36
-75 35 -1 0 -29 -10 -62 -22z"/>
<path d="M2350 5170 c6 -11 19 -20 30 -20 10 0 21 -6 23 -12 3 -8 6 -6 6 4 1
18 -35 48 -57 48 -10 0 -10 -5 -2 -20z"/>
<path d="M5733 5112 c0 -12 5 -22 9 -22 11 0 10 12 -2 30 -7 12 -9 10 -7 -8z"/>
<path d="M5758 5003 c-3 -19 15 -171 24 -193 4 -8 9 -44 12 -80 15 -161 30
-229 56 -247 13 -9 31 -24 40 -32 9 -9 68 -63 131 -121 62 -58 140 -131 172
-162 37 -37 67 -58 81 -58 13 0 29 -6 35 -14 9 -11 6 -18 -14 -34 -36 -29 -11
-40 27 -12 34 25 58 14 58 -26 0 -12 5 -26 10 -29 6 -4 10 7 10 24 0 35 6 38
32 14 17 -15 18 -15 18 3 0 11 -5 25 -12 32 -17 17 23 16 41 0 11 -11 13 -6 8
26 -4 22 -10 42 -15 45 -5 3 -12 15 -16 26 -10 32 -55 75 -100 95 -25 11 -66
45 -106 90 -36 39 -101 109 -145 154 -88 90 -177 185 -244 258 -35 39 -43 55
-46 95 -6 71 -22 137 -34 141 -6 2 -9 8 -5 13 3 5 1 9 -5 9 -5 0 -11 -8 -13
-17z"/>
<path d="M1740 4937 c0 -20 35 -66 64 -83 33 -20 86 -36 86 -25 0 10 -65 51
-82 51 -9 0 -28 15 -42 33 -14 17 -26 28 -26 24z"/>
<path d="M4425 4724 l-230 -114 -7 -38 c-16 -86 -27 -79 150 -86 86 -3 207 -9
268 -12 l112 -5 6 158 c4 87 9 170 12 186 5 26 4 27 -38 26 -34 0 -91 -24
-273 -115z"/>
<path d="M2476 4355 c-3 -8 -1 -15 4 -15 6 0 10 7 10 15 0 8 -2 15 -4 15 -2 0
-6 -7 -10 -15z"/>
<path d="M2045 4320 c-3 -6 1 -7 9 -4 18 7 21 14 7 14 -6 0 -13 -4 -16 -10z"/>
<path d="M2127 4293 c-4 -3 -7 -11 -7 -17 0 -6 5 -5 12 2 6 6 9 14 7 17 -3 3
-9 2 -12 -2z"/>
<path d="M1730 4107 c29 -17 206 -53 295 -60 45 -4 53 -3 30 4 -46 13 -254 57
-305 64 -43 6 -44 5 -20 -8z"/>
<path d="M2550 4069 c0 -5 5 -7 10 -4 6 3 10 8 10 11 0 2 -4 4 -10 4 -5 0 -10
-5 -10 -11z"/>
<path d="M2580 4049 c0 -11 4 -18 10 -14 5 3 7 12 3 20 -7 21 -13 19 -13 -6z"/>
<path d="M5882 4030 c0 -14 2 -19 5 -12 2 6 2 18 0 25 -3 6 -5 1 -5 -13z"/>
<path d="M2229 4010 c-31 -26 -15 -26 18 0 14 11 21 20 15 20 -5 0 -20 -9 -33
-20z"/>
<path d="M4860 3975 c0 -28 110 -44 350 -53 199 -7 396 -3 355 8 -11 3 -96 7
-190 9 -165 2 -393 21 -475 40 -31 7 -40 6 -40 -4z"/>
<path d="M2351 3940 c-17 -15 -19 -20 -7 -20 8 0 20 9 26 20 13 25 11 25 -19
0z"/>
<path d="M3080 3931 c0 -6 -6 -84 -14 -173 -8 -90 -22 -262 -32 -383 -10 -128
-22 -223 -28 -227 -6 -4 -63 -8 -128 -8 l-116 0 2 -882 c1 -486 5 -891 10
-900 7 -16 24 -18 140 -18 72 0 140 3 152 6 17 5 22 18 32 92 7 48 17 139 22
202 5 63 14 131 19 150 6 19 13 82 16 139 3 58 10 112 14 120 5 9 11 68 15
131 4 63 11 129 16 145 5 17 14 84 20 150 23 272 31 341 39 365 6 14 12 77 16
140 3 63 10 135 15 160 5 25 14 97 20 160 23 231 28 272 38 282 20 20 27 -22
34 -232 5 -118 13 -242 18 -275 5 -33 12 -159 16 -280 3 -121 10 -233 14 -250
5 -16 12 -133 15 -260 3 -126 10 -257 16 -290 5 -33 14 -172 19 -310 10 -252
17 -332 29 -339 11 -7 289 -11 296 -4 11 10 24 156 35 373 5 110 12 216 15
235 10 58 27 409 25 505 -1 50 -5 126 -8 170 -7 80 -7 80 -37 83 -79 7 -74 -3
-69 145 2 72 6 167 8 210 l4 77 -181 0 -180 0 6 395 7 395 -159 0 c-88 0 -166
3 -175 6 -9 3 -16 1 -16 -5z"/>
<path d="M1980 3921 c0 -5 28 -34 62 -64 l61 -55 11 -213 c11 -243 3 -375 -65
-1017 -7 -61 -10 -115 -7 -118 11 -10 56 49 94 124 21 41 45 81 52 89 13 12
12 49 -6 276 -12 144 -26 330 -32 412 -6 83 -15 206 -20 275 -6 69 -11 143
-13 164 -2 34 -7 42 -37 58 -19 11 -47 32 -61 48 -26 31 -39 37 -39 21z"/>
<path d="M5358 3867 c-17 -13 -28 -90 -15 -103 4 -4 7 0 7 10 0 9 9 36 20 58
11 23 20 43 20 45 0 7 -16 2 -32 -10z"/>
<path d="M6284 3722 c-22 -42 -71 -92 -106 -109 -46 -22 -96 -43 -102 -43 -7
0 -12 -4 -51 -38 -45 -39 -66 -103 -45 -140 30 -54 73 -162 77 -193 4 -23 -1
-49 -11 -70 -9 -17 -16 -36 -16 -41 0 -16 -84 -118 -97 -118 -10 0 -13 -60
-13 -275 0 -232 2 -275 14 -275 35 0 52 -46 80 -226 15 -99 32 -198 37 -221 5
-23 9 -63 9 -88 0 -26 4 -54 9 -64 6 -9 13 -79 17 -154 5 -100 10 -137 20
-141 9 -4 14 2 15 17 0 12 5 65 10 117 5 52 14 158 19 235 6 77 15 150 20 163
6 13 10 40 10 60 0 33 8 45 63 98 77 74 92 84 84 58 -37 -122 -73 -258 -83
-319 -3 -16 -11 -59 -19 -95 -17 -77 -42 -223 -51 -300 -8 -69 7 -58 18 13 4
29 12 86 18 127 6 41 15 84 20 95 5 11 11 45 15 75 3 30 10 59 14 65 9 12 38
117 46 165 3 19 17 75 32 123 25 82 30 92 72 123 151 111 202 167 227 251 17
57 11 98 -28 184 l-29 65 45 91 c25 49 46 95 46 102 0 30 -21 4 -59 -74 -23
-47 -45 -85 -49 -85 -11 1 -51 95 -63 150 -14 65 10 187 56 285 19 41 28 115
20 164 -5 32 -19 54 -62 96 -30 30 -58 55 -63 55 -5 0 -15 6 -22 13 -7 7 -32
27 -55 45 -24 19 -43 40 -43 47 0 29 -27 21 -46 -13z m-204 -1426 c52 -60 74
-109 74 -161 -1 -44 -16 -232 -31 -382 -9 -91 -33 -62 -33 40 0 52 -52 416
-76 537 l-7 35 23 -20 c13 -11 35 -33 50 -49z"/>
<path d="M5331 3734 c0 -11 3 -14 6 -6 3 7 2 16 -1 19 -3 4 -6 -2 -5 -13z"/>
<path d="M5331 3694 c0 -11 3 -14 6 -6 3 7 2 16 -1 19 -3 4 -6 -2 -5 -13z"/>
<path d="M1356 3639 c-13 -41 -29 -662 -30 -1156 -1 -567 -6 -628 -33 -438 -7
50 -17 113 -22 140 -6 28 -10 69 -10 93 -1 40 -46 150 -57 139 -7 -6 15 -125
28 -152 9 -21 31 -137 49 -255 5 -36 15 -92 21 -125 10 -59 22 -182 34 -359 4
-50 10 -83 15 -75 6 10 10 10 23 0 13 -11 15 -1 19 76 9 175 27 365 37 401 5
20 10 53 10 72 1 19 9 69 19 110 l18 75 59 5 59 5 0 197 c0 109 -3 198 -6 198
-3 0 -13 -17 -23 -37 -10 -21 -42 -75 -72 -119 l-54 -82 10 -52 c13 -67 13
-135 0 -158 -16 -29 -31 -130 -41 -277 -5 -77 -14 -154 -19 -171 -6 -17 -10
-68 -10 -115 0 -79 -10 -122 -26 -107 -12 13 -5 1567 9 1873 7 160 10 294 5
299 -4 5 -9 3 -12 -5z"/>
<path d="M858 3482 c-10 -2 -18 -10 -18 -18 0 -8 -9 -22 -20 -31 -30 -26 -24
-38 8 -13 15 11 38 29 51 39 18 13 20 19 10 22 -8 3 -22 4 -31 1z"/>
<path d="M895 3368 c4 -18 13 -44 21 -58 26 -49 74 -184 120 -337 11 -35 22
-63 27 -63 18 0 2 119 -23 175 -10 23 -37 90 -75 190 -36 92 -53 125 -66 125
-7 0 -8 -12 -4 -32z"/>
<path d="M2643 2855 c0 -44 2 -61 4 -37 2 23 2 59 0 80 -2 20 -4 1 -4 -43z"/>
<path d="M900 2351 c0 -5 7 -12 16 -15 24 -9 27 -7 10 9 -17 17 -26 19 -26 6z"/>
<path d="M950 2320 c0 -5 5 -10 11 -10 5 0 7 5 4 10 -3 6 -8 10 -11 10 -2 0
-4 -4 -4 -10z"/>
<path d="M990 2300 c0 -6 7 -13 15 -17 24 -9 27 1 5 15 -13 8 -20 8 -20 2z"/>
<path d="M1088 2253 c7 -3 16 -2 19 1 4 3 -2 6 -13 5 -11 0 -14 -3 -6 -6z"/>
<path d="M5661 1296 c1 -32 -2 -61 -8 -64 -12 -8 -38 -184 -30 -205 4 -11 55
-15 259 -21 139 -4 303 -9 364 -13 121 -6 131 -2 116 49 -19 63 -66 96 -158
107 -62 8 -71 7 -91 -11 -24 -23 -47 -15 -40 13 6 22 -11 26 -19 4 -8 -21 -54
-20 -54 1 0 13 -3 14 -15 4 -21 -18 -48 -5 -40 20 7 22 -5 26 -22 9 -16 -16
-36 -1 -30 22 3 10 1 22 -4 25 -5 3 -9 27 -9 55 l0 49 -49 0 c-26 0 -76 3
-110 6 l-62 7 2 -57z"/>
<path d="M5036 1332 c-26 -3 -28 -6 -22 -34 3 -17 6 -37 6 -45 0 -15 20 -14
64 3 12 5 16 0 16 -20 0 -24 2 -25 20 -14 17 11 22 10 30 -2 9 -13 10 -13 10
1 0 8 -6 21 -12 27 -10 10 -10 17 0 32 33 53 4 66 -112 52z"/>
<path d="M2789 1241 c-1 -3 -2 -15 -3 -26 -1 -17 -7 -19 -35 -17 -31 3 -33 2
-22 -12 20 -23 4 -39 -22 -21 -29 20 -37 19 -37 -5 0 -11 -6 -20 -13 -20 -7 0
-18 9 -25 20 -7 11 -16 20 -21 20 -5 0 -7 -9 -4 -20 7 -25 -18 -27 -38 -4 -30
37 -220 -19 -234 -69 -3 -12 -11 -32 -17 -44 -6 -12 -8 -29 -4 -38 6 -16 34
-17 374 -10 202 4 371 10 375 12 14 8 -3 163 -21 206 -15 34 -20 38 -42 32
-49 -13 -125 -16 -167 -7 -24 6 -44 7 -44 3z"/>
<path d="M3521 1224 c-6 -15 -14 -47 -18 -73 -6 -44 -5 -45 13 -30 23 20 72
36 139 45 28 3 58 13 68 22 13 12 20 13 29 4 19 -19 23 -15 25 24 2 35 1 35
-30 27 -41 -10 -143 -10 -183 0 -27 7 -32 5 -43 -19z"/>
<path d="M4593 1149 c-64 -11 -109 -37 -134 -78 -44 -73 -24 -84 142 -74 l133
8 3 49 c3 46 1 52 -29 78 -35 30 -36 30 -115 17z"/>
</g>
</svg>
