<?xml version="1.0" standalone="no"?>
<!DOCTYPE svg PUBLIC "-//W3C//DTD SVG 20010904//EN"
 "http://www.w3.org/TR/2001/REC-SVG-20010904/DTD/svg10.dtd">
<svg version="1.0" xmlns="http://www.w3.org/2000/svg"
 width="612.000000pt" height="408.000000pt" viewBox="0 0 612.000000 408.000000"
 preserveAspectRatio="xMidYMid meet">

<g transform="translate(0.000000,408.000000) scale(0.100000,-0.100000)"
fill="#000000" stroke="none">
<path d="M3125 3120 c-281 -8 -315 -20 -315 -111 0 -45 -2 -48 -30 -54 -53
-12 -61 -54 -35 -185 8 -41 19 -88 25 -105 l10 -30 -4 30 c-1 17 -5 36 -7 44
-5 18 43 30 134 33 63 2 70 0 88 -22 15 -20 19 -22 19 -7 0 12 8 17 30 17 22
0 30 -5 30 -17 1 -17 1 -17 11 0 6 10 20 22 32 27 24 9 -122 16 -245 12 -60
-3 -68 -1 -67 15 1 31 45 138 55 136 126 -23 301 -27 370 -7 17 4 23 -2 37
-38 9 -24 20 -58 23 -76 l7 -33 -73 4 c-43 3 -67 1 -59 -4 8 -5 30 -9 50 -9
20 0 51 -5 68 -11 29 -10 32 -15 27 -41 -3 -16 -2 -27 3 -24 13 8 43 152 44
207 0 26 -5 54 -12 63 -11 13 -11 20 2 39 35 54 44 160 13 155 -6 -1 -110 -5
-231 -8z"/>
<path d="M3077 2843 c-4 -3 -7 -14 -7 -24 0 -30 36 -41 101 -34 48 6 59 10 57
23 -4 23 -96 41 -109 21 -7 -11 -9 -10 -9 4 0 17 -20 23 -33 10z"/>
<path d="M2980 2829 c0 -5 -5 -7 -10 -4 -6 4 -33 4 -61 0 -39 -5 -49 -11 -47
-23 2 -12 18 -19 51 -24 67 -9 101 2 105 35 3 22 -1 27 -17 27 -12 0 -21 -5
-21 -11z"/>
<path d="M4194 2784 c-21 -15 -51 -40 -66 -58 -24 -27 -27 -29 -28 -11 0 12 6
27 13 35 10 12 9 12 -5 1 -10 -7 -20 -29 -24 -47 -6 -30 -14 -39 -65 -65 -67
-33 -63 -20 -46 -174 l12 -100 27 3 c19 2 35 -5 53 -22 23 -23 26 -24 32 -8 3
9 25 64 48 122 l43 105 88 9 c156 15 144 18 177 -44 l28 -55 -6 50 c-3 28 -7
64 -9 80 -3 38 -19 68 -64 124 -69 85 -137 103 -208 55z"/>
<path d="M1754 2743 c-17 -12 -34 -49 -34 -73 0 -14 -9 -24 -30 -32 -40 -13
-46 -43 -32 -142 6 -43 13 -80 15 -82 2 -2 25 3 52 11 75 23 140 20 159 -7 13
-18 16 -19 16 -5 0 20 46 24 52 5 3 -9 9 -8 22 5 24 23 105 21 205 -7 5 -1 6
13 16 119 6 62 5 72 -14 92 -12 12 -21 31 -21 42 0 45 -82 67 -272 76 -68 4
-128 3 -134 -2z m364 -170 c25 -60 42 -123 34 -124 -4 0 -107 -1 -230 -2
l-223 -2 6 35 c4 19 16 56 27 82 l20 48 157 3 c86 1 163 4 172 5 11 1 23 -14
37 -45z"/>
<path d="M1956 2534 c-11 -28 13 -44 63 -44 46 0 81 13 69 25 -13 13 -83 24
-87 14 -2 -6 -11 -3 -21 6 -16 15 -18 15 -24 -1z"/>
<path d="M1870 2530 c0 -6 -10 -8 -22 -5 -28 6 -80 -7 -85 -22 -5 -13 95 -27
120 -17 21 8 23 54 2 54 -8 0 -15 -5 -15 -10z"/>
<path d="M2740 2630 c0 -11 2 -20 4 -20 2 0 6 9 9 20 3 11 1 20 -4 20 -5 0 -9
-9 -9 -20z"/>
<path d="M3326 2643 c5 -5 12 -12 16 -18 4 -6 8 -2 8 8 0 9 -7 17 -17 17 -9 0
-12 -3 -7 -7z"/>
<path d="M5198 2640 c-120 -30 -203 -153 -215 -317 -7 -84 -5 -85 82 -58 27 8
52 12 57 9 4 -3 17 0 29 6 14 8 29 8 50 1 23 -8 29 -7 29 5 0 8 -11 20 -25 26
l-25 11 39 43 c22 23 49 61 61 84 l22 42 23 -50 c29 -63 89 -124 154 -157 80
-40 85 -38 78 48 -3 39 -13 92 -21 116 -23 64 -82 136 -135 164 -52 29 -146
41 -203 27z"/>
<path d="M733 2612 c-93 -33 -168 -111 -193 -202 -13 -47 -13 -152 1 -187 l11
-28 21 42 c11 23 27 42 36 43 54 4 78 3 94 -4 12 -6 17 -4 17 8 0 23 -37 39
-75 32 l-34 -7 32 88 c17 48 32 90 34 92 2 3 22 -13 46 -36 23 -22 68 -61 100
-87 44 -35 53 -46 37 -46 -30 0 -60 -18 -60 -36 0 -11 4 -12 19 -5 33 18 113
9 176 -21 33 -15 68 -28 77 -28 24 0 48 -28 48 -56 0 -14 -12 -37 -27 -52 -28
-27 -52 -93 -53 -147 0 -16 -11 -66 -24 -110 -21 -71 -26 -80 -47 -80 -21 0
-36 -21 -104 -147 -90 -165 -92 -166 -94 -17 0 42 -4 91 -7 108 -6 30 -8 31
-43 25 -50 -8 -159 -61 -171 -83 -14 -27 -67 -242 -84 -341 -10 -60 -14 -172
-15 -385 0 -165 -3 -344 -7 -398 -6 -93 -6 -98 13 -103 17 -5 20 -12 17 -47
-2 -23 -9 -112 -14 -197 -6 -85 -13 -165 -16 -177 l-6 -23 436 0 c240 0 437 1
438 3 0 1 4 74 7 162 6 153 7 160 27 163 19 3 21 11 27 115 4 62 7 149 7 195
l0 82 -31 0 c-17 0 -44 8 -60 17 -61 36 -73 117 -39 261 11 46 20 94 20 107 0
13 4 26 9 29 5 3 12 22 16 42 3 20 33 127 66 237 l60 200 -28 96 c-27 93 -28
104 -29 336 0 220 -2 245 -22 300 -41 113 -102 163 -202 166 -47 2 -60 7 -94
37 -83 74 -211 100 -313 64z m436 -1507 c21 -78 28 -122 24 -153 -3 -23 -9
-44 -13 -47 -13 -8 -52 158 -60 255 -9 95 -2 140 12 85 4 -17 21 -80 37 -140z
m-116 94 c13 -20 2 -65 -18 -73 -8 -3 -26 -1 -40 4 -19 7 -25 17 -25 38 0 15
6 34 12 40 17 17 58 11 71 -9z m-318 -72 c13 -10 15 -16 6 -21 -12 -8 -41 10
-41 25 0 13 13 11 35 -4z m-115 -11 c0 -14 -29 -31 -38 -22 -2 3 -2 12 1 21 8
19 37 20 37 1z m50 -273 c0 -5 16 -129 35 -278 40 -304 38 -285 27 -285 -5 0
-23 114 -41 253 -18 138 -35 267 -38 285 -3 20 -1 32 6 32 6 0 11 -3 11 -7z
m519 -384 c17 -6 31 -15 31 -21 0 -20 -62 -134 -81 -150 -22 -19 -80 -23 -114
-8 -20 9 -20 9 2 15 12 4 24 18 28 32 8 32 2 38 -24 22 -32 -21 -35 -3 -6 35
25 33 96 83 121 85 6 1 25 -4 43 -10z"/>
<path d="M991 1186 c-9 -11 -8 -17 4 -30 20 -20 47 -9 43 18 -4 25 -30 32 -47
12z"/>
<path d="M3001 2530 c-1 -35 13 -60 34 -60 5 0 4 4 -4 9 -8 5 -17 26 -21 47
l-8 39 -1 -35z"/>
<path d="M2830 2441 c-12 -8 -10 -18 10 -62 70 -149 169 -209 274 -165 58 24
167 184 152 223 -4 10 -50 13 -213 13 -114 0 -215 -4 -223 -9z m310 -42 c0
-15 -47 -29 -101 -29 -54 0 -89 13 -89 33 0 9 25 11 95 9 52 -2 95 -8 95 -13z"/>
<path d="M4356 2434 c-11 -29 13 -44 70 -44 29 0 56 5 60 11 11 18 -14 33 -56
34 -22 0 -40 3 -40 8 0 14 -28 7 -34 -9z"/>
<path d="M4203 2433 c-39 -5 -44 -30 -8 -38 14 -3 37 -7 51 -10 40 -9 64 3 64
31 0 15 -6 24 -15 24 -8 0 -15 -5 -15 -12 0 -9 -3 -9 -12 0 -7 7 -17 11 -22
10 -6 0 -26 -3 -43 -5z"/>
<path d="M1682 2380 c0 -14 2 -19 5 -12 2 6 2 18 0 25 -3 6 -5 1 -5 -13z"/>
<path d="M1650 2359 c0 -5 5 -7 10 -4 6 3 10 8 10 11 0 2 -4 4 -10 4 -5 0 -10
-5 -10 -11z"/>
<path d="M2185 2360 c3 -5 8 -10 11 -10 2 0 4 5 4 10 0 6 -5 10 -11 10 -5 0
-7 -4 -4 -10z"/>
<path d="M4013 2304 c-3 -8 -1 -20 6 -27 8 -8 11 -8 11 0 0 6 3 18 6 27 3 9 1
16 -5 16 -7 0 -14 -7 -18 -16z"/>
<path d="M4216 2305 c-7 -20 3 -45 19 -45 16 0 26 25 19 45 -4 8 -12 15 -19
15 -7 0 -15 -7 -19 -15z"/>
<path d="M4394 2305 c-9 -21 3 -45 21 -45 10 0 15 10 15 30 0 32 -26 43 -36
15z"/>
<path d="M5348 2309 c-10 -5 -18 -16 -18 -24 0 -11 6 -11 29 -2 22 8 36 8 55
-1 21 -9 26 -9 26 3 0 29 -58 44 -92 24z"/>
<path d="M1890 2285 c-1 -11 -3 -28 -5 -37 -2 -9 2 -22 9 -27 9 -8 11 -1 8 27
-4 46 -10 63 -12 37z"/>
<path d="M5152 2227 c-14 -16 -4 -57 13 -57 19 0 27 28 15 51 -13 23 -14 23
-28 6z"/>
<path d="M5374 2215 c-8 -31 10 -55 27 -38 14 14 8 55 -8 60 -7 3 -15 -7 -19
-22z"/>
<path d="M647 2224 c-4 -4 -7 -18 -7 -31 0 -18 5 -24 18 -21 10 2 17 12 17 27
0 24 -15 37 -28 25z"/>
<path d="M846 2215 c-8 -21 3 -45 20 -45 9 0 14 11 14 30 0 32 -23 42 -34 15z"/>
<path d="M4363 2175 c-6 -14 -7 -25 -2 -25 11 0 22 25 17 39 -1 6 -8 -1 -15
-14z"/>
<path d="M4067 2147 c-16 -11 -17 -16 -2 -56 43 -123 110 -191 189 -191 67 0
142 64 192 162 28 54 27 65 -4 49 -36 -19 -115 -12 -207 19 -96 32 -141 37
-168 17z m276 -93 c47 8 48 -1 2 -20 -31 -13 -39 -13 -65 1 -38 20 -40 38 -2
24 15 -6 44 -8 65 -5z"/>
<path d="M5553 2143 c-13 -8 -23 -24 -23 -34 0 -74 -90 -207 -156 -231 -34
-12 -35 -14 -32 -58 2 -36 7 -46 23 -48 44 -8 79 -60 89 -132 7 -45 6 -45 -31
-62 -42 -19 -73 -62 -73 -100 1 -18 5 -14 22 20 12 24 33 49 50 58 58 30 128
-19 128 -91 0 -20 -5 -25 -25 -25 -19 0 -25 -5 -25 -21 0 -21 -3 -22 -61 -15
-34 3 -82 6 -105 6 -36 0 -44 3 -44 19 0 15 -10 19 -52 25 -29 3 -72 6 -95 6
l-43 0 0 -97 c0 -61 -4 -92 -9 -83 -17 29 -34 212 -29 313 6 119 27 181 68
202 32 16 53 76 30 83 -7 3 -31 21 -53 41 -39 35 -97 141 -97 178 0 10 -14 26
-30 35 -17 9 -30 13 -30 8 0 -6 -21 -56 -46 -112 -71 -158 -64 -235 28 -308
l27 -21 51 32 c28 17 53 29 56 27 2 -3 -1 -18 -7 -34 -20 -52 -22 -221 -5
-354 9 -69 21 -126 26 -128 5 -2 4 -12 -2 -22 -9 -15 -9 -24 1 -44 10 -17 12
-49 9 -104 l-5 -79 101 -23 c56 -12 114 -29 130 -37 15 -8 52 -17 82 -20 49
-5 56 -3 89 25 44 39 92 65 99 53 3 -5 -1 -14 -9 -21 -24 -20 -17 -30 20 -30
l35 0 0 70 c0 67 -1 70 -24 70 -13 0 -29 7 -36 15 -7 8 -18 15 -25 15 -18 0
-13 33 7 45 9 6 16 15 15 20 -1 6 15 14 36 19 l37 10 0 112 0 113 -32 3 c-27
2 -34 8 -36 28 -5 46 -35 101 -63 115 -21 11 -28 24 -34 62 -4 26 -13 63 -21
81 -13 32 -13 33 9 26 33 -10 75 -33 82 -44 12 -20 36 -9 80 35 80 82 82 144
5 313 -22 49 -40 95 -40 101 0 15 -10 13 -37 -6z"/>
<path d="M1830 2146 c0 -22 33 -65 59 -76 39 -16 76 -6 107 27 24 26 35 58 12
35 -19 -19 -138 -15 -160 5 -10 9 -18 13 -18 9z"/>
<path d="M2733 2035 c-46 -32 -70 -152 -54 -272 9 -75 118 -423 132 -423 4 0
-3 33 -17 73 -99 288 -119 517 -52 602 24 31 20 40 -9 20z"/>
<path d="M3081 1990 l-33 -28 35 -59 c33 -55 35 -63 36 -153 4 -228 21 -514
32 -520 16 -10 120 -33 125 -27 3 2 -25 150 -61 328 l-65 323 16 54 c18 63 16
71 -22 94 -28 16 -30 15 -63 -12z"/>
<path d="M3355 2003 c20 -48 33 -91 36 -120 3 -30 0 -35 -41 -55 -34 -18 -51
-35 -69 -71 -21 -43 -23 -54 -14 -100 l10 -52 2 40 c3 102 49 165 120 165 66
0 111 -53 111 -130 0 -22 5 -40 10 -40 17 0 11 83 -10 127 -13 30 -30 48 -55
60 -20 9 -37 26 -40 38 -2 11 -7 37 -10 58 -8 50 -24 84 -42 92 -11 4 -13 1
-8 -12z"/>
<path d="M2202 1813 c20 -34 23 -51 23 -153 -1 -120 -14 -187 -71 -356 -14
-42 -23 -81 -21 -87 7 -21 108 303 117 376 11 88 -2 191 -28 226 -30 40 -44
36 -20 -6z"/>
<path d="M1611 1802 c-5 -9 -14 -44 -20 -76 -6 -33 -12 -60 -13 -60 -56 -19
-98 -78 -98 -138 0 -54 16 -47 23 9 6 58 49 103 98 103 41 0 99 -56 100 -96 0
-16 4 -38 8 -48 7 -18 8 -18 14 -3 9 24 -2 76 -24 113 -17 28 -40 44 -82 58
-15 5 -17 13 -12 43 4 21 15 55 25 76 14 29 15 37 4 37 -7 0 -18 -8 -23 -18z"/>
<path d="M1821 1801 c-24 -18 -24 -19 -9 -72 15 -53 14 -57 -44 -339 -32 -156
-58 -290 -58 -296 0 -9 16 -8 63 4 l62 17 10 280 11 280 28 48 29 48 -23 25
c-28 29 -37 29 -69 5z"/>
<path d="M4680 1515 c-2 -82 -4 -187 -6 -232 -1 -46 1 -83 6 -83 5 0 24 9 42
20 18 11 41 20 51 20 22 0 20 14 -20 150 -31 107 -60 217 -66 250 -2 14 -6
-42 -7 -125z"/>
<path d="M3281 1584 c0 -11 3 -14 6 -6 3 7 2 16 -1 19 -3 4 -6 -2 -5 -13z"/>
<path d="M3292 1540 c0 -14 2 -19 5 -12 2 6 2 18 0 25 -3 6 -5 1 -5 -13z"/>
<path d="M3481 1533 c-1 -6 -4 -20 -7 -30 -5 -17 -5 -17 6 0 6 10 9 23 6 30
-3 9 -5 9 -5 0z"/>
<path d="M3301 1494 c0 -11 3 -14 6 -6 3 7 2 16 -1 19 -3 4 -6 -2 -5 -13z"/>
<path d="M3456 1465 c-9 -26 -7 -32 5 -12 6 10 9 21 6 23 -2 3 -7 -2 -11 -11z"/>
<path d="M1696 1424 c-4 -20 -5 -38 -3 -40 3 -3 8 11 11 32 4 20 5 38 3 40 -3
3 -8 -11 -11 -32z"/>
<path d="M3326 1420 c3 -14 14 -37 25 -52 19 -27 19 -27 -2 -38 -11 -7 -18
-14 -16 -17 3 -2 15 1 27 7 17 9 26 8 46 -5 26 -17 34 -9 8 9 -14 11 -14 16 6
49 12 20 20 37 17 37 -3 0 -15 -16 -26 -36 -19 -31 -24 -34 -38 -23 -9 8 -24
32 -34 54 -11 22 -16 29 -13 15z"/>
<path d="M1681 1354 c0 -11 3 -14 6 -6 3 7 2 16 -1 19 -3 4 -6 -2 -5 -13z"/>
<path d="M1642 1245 c-14 -31 -34 -32 -57 -2 -15 20 -15 20 1 -7 16 -28 16
-30 -2 -43 -10 -7 -13 -13 -8 -13 6 0 15 5 22 12 9 9 18 9 38 -1 15 -6 29 -9
32 -6 4 3 -4 8 -16 12 -26 6 -26 7 -6 39 9 13 15 27 12 29 -3 3 -10 -6 -16
-20z"/>
<path d="M4149 1183 c-6 -15 -17 -44 -24 -63 l-12 -35 86 -53 c121 -75 287
-157 378 -188 62 -21 92 -25 149 -22 83 4 108 20 124 78 9 33 -1 134 -14 148
-3 2 -84 21 -181 43 -152 33 -423 98 -477 115 -13 4 -21 -3 -29 -23z"/>
<path d="M3213 884 l-53 -24 0 -78 0 -79 66 -92 c36 -51 68 -90 70 -88 8 8 74
211 74 228 0 10 -5 41 -11 69 -9 44 -16 53 -49 70 -22 11 -41 20 -42 19 -2 0
-27 -11 -55 -25z"/>
<path d="M5270 818 c-25 -3 -77 -7 -116 -7 -82 -1 -84 -3 -84 -86 l0 -54 43
-5 c63 -8 487 -29 491 -25 2 2 7 45 10 94 l7 90 -153 0 c-84 0 -173 -3 -198
-7z"/>
<path d="M1679 804 c-33 -14 -37 -19 -45 -72 -9 -52 -6 -67 25 -161 l34 -104
18 24 c10 13 39 54 63 90 l46 65 -7 68 -6 68 -44 19 c-25 10 -45 19 -46 18 -1
0 -18 -7 -38 -15z"/>
<path d="M3115 434 c-8 -57 -74 -264 -114 -362 l-30 -72 275 0 275 0 -6 57
c-13 116 -45 369 -51 396 -5 22 -11 27 -34 27 -29 0 -29 -1 -32 -62 l-3 -63
-102 -3 -103 -3 0 66 0 65 -34 0 c-32 0 -34 -2 -41 -46z"/>
<path d="M3202 423 l3 -58 85 0 85 0 3 58 3 57 -91 0 -91 0 3 -57z m66 0 c-10
-2 -26 -2 -35 0 -10 3 -2 5 17 5 19 0 27 -2 18 -5z"/>
<path d="M3795 330 c-2 -3 -6 -78 -10 -167 l-8 -163 417 0 416 0 0 134 c0 73
3 147 6 165 l6 31 -412 2 c-226 2 -413 1 -415 -2z"/>
<path d="M1526 294 c-3 -22 -10 -82 -16 -134 -6 -52 -13 -110 -16 -128 l-5
-32 247 0 c231 0 246 1 239 18 -4 9 -31 84 -59 166 l-51 148 -50 -7 c-58 -8
-135 -7 -221 1 l-62 6 -6 -38z"/>
</g>
</svg>
