<svg width="2760" height="1840" viewBox="0 0 2760 1840" fill="none" xmlns="http://www.w3.org/2000/svg">
<g clip-path="url(#clip0_1_2)">
<mask id="mask0_1_2" style="mask-type:luminance" maskUnits="userSpaceOnUse" x="0" y="0" width="2760" height="1840">
<path d="M2760 0H0V1840H2760V0Z" fill="white"/>
</mask>
<g mask="url(#mask0_1_2)">
<path d="M2659.02 1183.61C2656.75 1298.58 2624.35 1403.55 2573.9 1506.93C2573.9 1506.93 2381.83 1506.96 2108.1 1507.01C1429.48 1507.11 248.97 1507.27 248.89 1507.2C248.42 1506.83 247.95 1506.47 247.47 1506.1C192.17 1463.14 171.99 1400.37 184.18 1330.5C184.18 1330.49 184.18 1330.48 184.19 1330.47C197.36 1254.38 248.27 1171.75 327.23 1101.9C440.14 1002.03 530.37 975.94 471.1 766.39C454.36 707.17 458.34 653.82 474.95 606.55C527.53 456.81 706.74 368.29 754.31 348.51C913.25 282.36 1137.36 285.37 1306.33 320.82C1577.83 377.79 1673.18 530.23 1754.37 613.44C1784.5 644.25 1812.54 665.15 1846.93 667.4C1903.1 671.04 1983.18 640.7 2080.43 631.76C2153.07 625.07 2235.17 630.32 2323.76 670.64C2420.96 714.78 2516.42 800.59 2570.6 879.27C2633.28 970.31 2661.14 1073.56 2659.02 1183.61Z" fill="#99CCCC"/>
<g opacity="0.5">
<path d="M2488.7 865.08H1968.84V1505.39H2488.7V865.08Z" fill="#98BAF4"/>
<path d="M2488.7 896.39H2020.69V966.14H2488.7V896.39Z" fill="#EDF4FF"/>
<path d="M2222.44 1011.25H1635.32V1507.58H2222.44V1011.25Z" fill="#EBF3FF"/>
<path d="M2231.62 993.22H1620.8V1011.26H2231.62V993.22Z" fill="white"/>
<path d="M2498.35 856.06H1958.36V874.1H2498.35V856.06Z" fill="white"/>
<path d="M2015.19 1056.12H1635.32V1148.37H2015.19V1056.12Z" fill="#AFCDFB"/>
<path d="M1635.32 1070.05H1280.95V1266.6H1635.32V1070.05Z" fill="#AFCDFB"/>
<path d="M1635.32 1307.49H1280.95V1504.04H1635.32V1307.49Z" fill="#AFCDFB"/>
<path d="M1635.31 1266.6H1330.06V1307.49H1635.31V1266.6Z" fill="#7FA8E5"/>
<path d="M1746.61 1086.2H1753.67V1098.9H1766.69V1086.2H1773.75V1118.29H1766.69V1105.41H1753.67V1118.29H1746.61V1086.2Z" fill="white"/>
<path d="M1780.03 1102.24C1780.03 1093.12 1787.23 1085.65 1797.13 1085.65C1807.03 1085.65 1814.14 1093.03 1814.14 1102.24C1814.14 1111.45 1806.94 1118.83 1797.04 1118.83C1787.14 1118.83 1780.03 1111.45 1780.03 1102.24ZM1806.75 1102.24C1806.75 1096.74 1802.72 1092.16 1797.03 1092.16C1791.34 1092.16 1787.4 1096.65 1787.4 1102.24C1787.4 1107.83 1791.43 1112.33 1797.12 1112.33C1802.81 1112.33 1806.75 1107.84 1806.75 1102.24Z" fill="white"/>
<path d="M1817.99 1113.61L1822.16 1108.61C1825.05 1110.99 1828.07 1112.51 1831.74 1112.51C1834.63 1112.51 1836.37 1111.36 1836.37 1109.39C1836.37 1107.6 1835.27 1106.69 1829.91 1105.31C1823.45 1103.66 1819.28 1101.87 1819.28 1095.41C1819.28 1089.59 1823.95 1085.74 1830.51 1085.74C1835.18 1085.74 1839.17 1087.21 1842.43 1089.82L1838.76 1095.14C1835.92 1093.17 1833.12 1091.98 1830.42 1091.98C1827.72 1091.98 1826.29 1093.22 1826.29 1094.87C1826.29 1096.98 1827.67 1097.67 1833.21 1099.09C1839.72 1100.79 1843.39 1103.12 1843.39 1108.81C1843.39 1115.18 1838.53 1118.76 1831.61 1118.76C1826.75 1118.76 1821.85 1117.06 1817.99 1113.63V1113.61Z" fill="white"/>
<path d="M1849.53 1086.2H1862.64C1870.3 1086.2 1874.93 1090.74 1874.93 1097.38C1874.93 1104.81 1869.15 1108.66 1861.96 1108.66H1856.6V1118.29H1849.54V1086.2H1849.53ZM1862.18 1102.38C1865.71 1102.38 1867.77 1100.27 1867.77 1097.43C1867.77 1094.27 1865.57 1092.57 1862.04 1092.57H1856.58V1102.38H1862.17H1862.18Z" fill="white"/>
<path d="M1880.47 1086.2H1887.53V1118.29H1880.47V1086.2Z" fill="white"/>
<path d="M1903.02 1092.71H1893.26V1086.2H1919.85V1092.71H1910.09V1118.29H1903.03V1092.71H1903.02Z" fill="white"/>
<path d="M1932.13 1085.97H1938.64L1952.39 1118.29H1945.01L1942.08 1111.09H1928.51L1925.58 1118.29H1918.38L1932.13 1085.97ZM1939.56 1104.86L1935.3 1094.45L1931.04 1104.86H1939.57H1939.56Z" fill="white"/>
<path d="M1957.35 1086.2H1964.41V1111.87H1980.41V1118.29H1957.35V1086.2Z" fill="white"/>
<path d="M2488.7 1270.23H2251.94V1426.48H2488.7V1270.23Z" fill="#AFCDFB"/>
<path d="M2488.7 1040.16H2251.94V1196.41H2488.7V1040.16Z" fill="#AFCDFB"/>
<path d="M2488.7 900.11H2025.62V961.67H2488.7V900.11Z" fill="#AFCDFB"/>
<path d="M1635.32 1017.44L2222.44 1035.15V1011.25H1635.32V1017.44Z" fill="#DFEBFD"/>
<path d="M1635.32 1068.88H1258.78V1088.34H1635.32V1068.88Z" fill="white"/>
<path d="M2139.24 1286.95H1726.69V1502.47H2139.24V1286.95Z" fill="#98BAF4"/>
<path d="M2127.29 1302.02H1740.55V1503.19H2127.29V1302.02Z" fill="white"/>
<path d="M2113.44 1314.75H1755.2V1360.97H2113.44V1314.75Z" fill="#AFCDFB"/>
<path d="M1859.96 1373.53H1755.2V1502.33H1859.96V1373.53Z" fill="#AFCDFB"/>
<path d="M1998.71 1373.53H1869.92V1502.33H1998.71V1373.53Z" fill="#AFCDFB"/>
<path d="M2113.44 1373.53H2007.57V1502.33H2113.44V1373.53Z" fill="#AFCDFB"/>
<path d="M1912.12 1373.53H1998.71V1421.19L1983.28 1502.33H1887.62L1912.12 1373.53Z" fill="#CCE1FF"/>
<path d="M1983.15 1398.03H1886.8V1502.47H1983.15V1398.03Z" fill="white"/>
<path d="M1978.56 1402.75H1891.4V1502.46H1978.56V1402.75Z" fill="#98BAF4"/>
<path d="M1936.61 1402.75H1933.36V1502.46H1936.61V1402.75Z" fill="white"/>
<path d="M1925.59 1452.61C1925.59 1451.47 1926.51 1450.55 1927.65 1450.55C1928.79 1450.55 1929.71 1451.47 1929.71 1452.61C1929.71 1453.75 1928.79 1454.67 1927.65 1454.67C1926.51 1454.67 1925.59 1453.75 1925.59 1452.61Z" fill="white"/>
<path d="M1940.25 1452.61C1940.25 1451.47 1941.17 1450.55 1942.31 1450.55C1943.45 1450.55 1944.37 1451.47 1944.37 1452.61C1944.37 1453.75 1943.45 1454.67 1942.31 1454.67C1941.17 1454.67 1940.25 1453.75 1940.25 1452.61Z" fill="white"/>
<path d="M1788.52 1373.53H1841.56L1824.63 1502.33H1771.59L1788.52 1373.53Z" fill="#CCE1FF"/>
<path d="M1849.28 1314.75L1843.21 1360.97H1790.17L1796.24 1314.75H1849.28Z" fill="#CCE1FF"/>
<path d="M2032.63 1373.53H2085.66L2068.73 1502.33H2015.7L2032.63 1373.53Z" fill="#CCE1FF"/>
<path d="M2093.39 1314.75L2087.31 1360.97H2034.27L2040.35 1314.75H2093.39Z" fill="#CCE1FF"/>
<path d="M2018.96 1314.75L2010.17 1360.97H1914.51L1923.3 1314.75H2018.96Z" fill="#CCE1FF"/>
<path d="M2007.65 1383.02H2007.85L2007.65 1384.04V1383.02Z" fill="#CCE1FF"/>
<path d="M2362.6 1196.41H2284.26L2318.54 1040.16H2396.87L2362.6 1196.41Z" fill="#BDD7FD"/>
<path d="M2432.01 1426.48H2353.67L2387.95 1270.23H2466.28L2432.01 1426.48Z" fill="#CCE1FF"/>
<path d="M2320.6 1270.23L2286.33 1426.48H2251.94V1270.23H2320.6Z" fill="#CCE1FF"/>
<path d="M2488.7 1040.16V1196.41H2402.58L2440.83 1040.16H2488.7Z" fill="#CCE1FF"/>
<path d="M2145.54 900.11H2139.01V961.67H2145.54V900.11Z" fill="#EDF4FF"/>
<path d="M2277.33 900.11H2270.8V961.67H2277.33V900.11Z" fill="#EDF4FF"/>
<path d="M2405.85 900.11H2399.32V961.67H2405.85V900.11Z" fill="#EDF4FF"/>
<g opacity="0.5">
<path d="M1361.73 1140.6H1322.47V1202.56H1361.73V1140.6Z" fill="#98BAF4"/>
<path d="M1363.34 1204.56H1320.09V1138.6H1363.34V1204.56ZM1324.08 1200.57H1359.34V1142.6H1324.08V1200.57Z" fill="white"/>
<path d="M1359.85 1161.32H1323.59V1164.31H1359.85V1161.32Z" fill="white"/>
<path d="M1359.85 1181.94H1323.59V1184.93H1359.85V1181.94Z" fill="white"/>
<path d="M1343.21 1202.56V1140.3H1340.22V1202.56H1343.21Z" fill="white"/>
<path d="M1475.08 1140.6H1435.82V1202.56H1475.08V1140.6Z" fill="#98BAF4"/>
<path d="M1476.7 1204.56H1433.45V1138.6H1476.7V1204.56ZM1437.44 1200.57H1472.7V1142.6H1437.44V1200.57Z" fill="white"/>
<path d="M1473.2 1161.32H1436.94V1164.31H1473.2V1161.32Z" fill="white"/>
<path d="M1473.2 1181.94H1436.94V1184.93H1473.2V1181.94Z" fill="white"/>
<path d="M1456.56 1202.56V1140.3H1453.57V1202.56H1456.56Z" fill="white"/>
<path d="M1588.43 1140.6H1549.17V1202.56H1588.43V1140.6Z" fill="#98BAF4"/>
<path d="M1590.05 1204.56H1546.8V1138.6H1590.05V1204.56ZM1550.79 1200.57H1586.05V1142.6H1550.79V1200.57Z" fill="white"/>
<path d="M1586.55 1161.32H1550.29V1164.31H1586.55V1161.32Z" fill="white"/>
<path d="M1586.55 1181.94H1550.29V1184.93H1586.55V1181.94Z" fill="white"/>
<path d="M1569.92 1202.57V1140.31H1566.92V1202.57H1569.92Z" fill="white"/>
</g>
<g opacity="0.5">
<path d="M1361.73 1353.06H1322.47V1415.02H1361.73V1353.06Z" fill="#98BAF4"/>
<path d="M1363.34 1417.02H1320.09V1351.06H1363.34V1417.02ZM1324.08 1413.03H1359.34V1355.06H1324.08V1413.03Z" fill="white"/>
<path d="M1359.85 1373.79H1323.59V1376.78H1359.85V1373.79Z" fill="white"/>
<path d="M1359.85 1394.4H1323.59V1397.4H1359.85V1394.4Z" fill="white"/>
<path d="M1343.22 1415.02V1352.77H1340.23V1415.02H1343.22Z" fill="white"/>
<path d="M1475.08 1353.06H1435.82V1415.02H1475.08V1353.06Z" fill="#98BAF4"/>
<path d="M1476.7 1417.02H1433.45V1351.06H1476.7V1417.02ZM1437.44 1413.03H1472.7V1355.06H1437.44V1413.03Z" fill="white"/>
<path d="M1473.2 1373.79H1436.94V1376.78H1473.2V1373.79Z" fill="white"/>
<path d="M1473.2 1394.4H1436.94V1397.4H1473.2V1394.4Z" fill="white"/>
<path d="M1456.57 1415.02V1352.77H1453.58V1415.02H1456.57Z" fill="white"/>
<path d="M1588.43 1353.06H1549.17V1415.02H1588.43V1353.06Z" fill="#98BAF4"/>
<path d="M1590.05 1417.02H1546.8V1351.06H1590.05V1417.02ZM1550.79 1413.03H1586.05V1355.06H1550.79V1413.03Z" fill="white"/>
<path d="M1586.55 1373.79H1550.29V1376.78H1586.55V1373.79Z" fill="white"/>
<path d="M1586.55 1394.4H1550.29V1397.4H1586.55V1394.4Z" fill="white"/>
<path d="M1569.92 1415.02V1352.77H1566.92V1415.02H1569.92Z" fill="white"/>
</g>
<path d="M2239.73 1221.76H1626.19V1243.35H2239.73V1221.76Z" fill="#D4E6FF"/>
<path d="M2167.55 1498H1709.17V1507.58H2167.55V1498Z" fill="#7FA8E5"/>
<path d="M1697.64 1507.58C1697.64 1507.58 1695.09 1485.04 1717.94 1479.33C1740.79 1473.62 1749.75 1453.22 1776.28 1470.35C1802.81 1487.49 1794.41 1507.57 1794.41 1507.57H1697.64V1507.58Z" fill="#ACD29A"/>
</g>
<path d="M1134.83 1146.05C1134.83 1146.05 1142.13 1171.7 1140.41 1178.12C1138.68 1184.53 1130.99 1196.5 1127.57 1196.08C1124.15 1195.65 1127.57 1155.03 1127.57 1155.03L1134.84 1146.05H1134.83Z" fill="#FFB27D"/>
<path d="M1010.87 947.34C1008.21 942.21 1068.9 923.74 1069.86 974.36C1069.86 974.36 1183.55 971.57 1129.26 908.2C1110.47 886.26 1112.4 868.13 1112.97 851.24C1113.54 834.35 1101.26 785.28 1059.19 790.22C1059.19 790.22 1048.17 785.73 1034.42 792.87C1003.14 809.1 933.08 966 1010.88 947.33L1010.87 947.34Z" fill="#163560"/>
<path d="M1140.38 1153.75C1140.38 1153.75 1139.74 1156.83 1133.35 1158.38C1130.4 1159.1 1126.22 1159.48 1120.32 1159.1C1119.06 1159.01 1117.72 1158.89 1116.29 1158.73C1113.58 1158.43 1110.58 1157.99 1107.25 1157.36L1109.6 1018.17L1099.8 909.55C1099.8 909.55 1120.72 919.44 1130.98 951.51C1138.86 976.14 1140.18 1082.21 1140.37 1130.11C1140.43 1144.59 1140.38 1153.75 1140.38 1153.75Z" fill="#AEC3FF"/>
<g opacity="0.3">
<path d="M1140.38 1153.75C1140.38 1153.75 1139.74 1156.83 1133.35 1158.38C1130.4 1159.1 1126.22 1159.48 1120.32 1159.1L1122.21 1055.41C1122.21 1055.41 1123.76 1112.03 1140.37 1130.12C1140.43 1144.6 1140.38 1153.76 1140.38 1153.76V1153.75Z" fill="#8C9DF4"/>
</g>
<path d="M933.95 1448.11C933.95 1448.11 921.21 1459.73 923.7 1468C926.19 1476.26 937.68 1481.77 939.24 1491.86C940.79 1501.96 947.01 1507.46 952.6 1507.46H979.26C979.26 1507.46 983.38 1500.35 973.43 1498.21C963.49 1496.07 959.74 1484.2 960.36 1473.19C960.98 1462.18 959.43 1447.49 959.43 1447.49L938.3 1442.59L933.95 1448.1V1448.11Z" fill="#23417C"/>
<path d="M1041.77 1453.04C1041.77 1453.04 1037.19 1502.29 1042.78 1505.04L1114.35 1504.89C1114.35 1504.89 1114.35 1496.63 1102.85 1494.79C1091.35 1492.95 1071.16 1486.22 1067.74 1471.23C1064.32 1456.24 1041.76 1453.03 1041.76 1453.03L1041.77 1453.04Z" fill="#23417C"/>
<path d="M1100.22 1048.86C1100.22 1048.86 1120.86 1113.09 1122.18 1134.96C1123.51 1156.83 1082.73 1445.62 1081.09 1455.69C1079.54 1465.19 1067.75 1471.24 1067.75 1471.24C1067.75 1471.24 1062.33 1474.44 1054.58 1472.25C1043.84 1469.22 1040.44 1465.59 1040.44 1465.59C1040.44 1465.59 1024.38 1259.63 1034.32 1186.06C1044.26 1112.49 1044.38 1048.86 1044.38 1048.86H1100.21H1100.22Z" fill="#233862"/>
<path d="M1012.79 1046.95C1012.79 1046.95 981.31 1089.18 978.38 1117.73C975.45 1146.28 973.78 1246.56 967.52 1274.4C961.27 1302.23 938.3 1355.79 938.3 1442.6C938.3 1442.6 940.69 1447.58 948.06 1450.23C950.42 1451.08 953.58 1451.9 956.64 1452.6C962.72 1453.99 968.96 1451.02 971.73 1445.44C987.26 1414.17 1036.73 1313.33 1039.26 1292.4C1041.05 1277.59 1051.59 1188.67 1085.66 1131.14C1093.84 1117.33 1093.35 1057.12 1093.35 1057.12L1012.78 1046.96L1012.79 1046.95Z" fill="#2B478B"/>
<path d="M986.71 964.24C986.71 964.24 985.64 979.28 986.71 997.32C987.42 1009.28 999.52 1025.3 1001.23 1029.27C1005.54 1039.21 1010.4 1040.83 1010.4 1040.83L1047.98 1050.04L1051.13 1070.16C1051.13 1070.16 1082.66 1083.63 1104.54 1062.78C1123.58 1044.64 1121.84 987.86 1114.22 958.04C1106.6 928.22 1094.96 907.51 1094.96 907.51C1094.96 907.51 1066.71 896.36 1016.69 904.69L986.72 964.25L986.71 964.24Z" fill="#2B478B"/>
<path d="M1030.21 901.59C1030.21 901.59 1014.42 904.23 1004.79 907.42L997.7 994.05H1062.98L1038.45 929.7L1030.2 901.59H1030.21Z" fill="#AEC3FF"/>
<path d="M1063 994.04L1055.83 1260.94C1055.83 1260.94 1020.06 1277.92 951.74 1260.94L969.36 976.81L1063 994.04Z" fill="#AEC3FF"/>
<path d="M952.69 1056.07L1001 1098.13C1004.49 1101.17 1009.78 1100.8 1012.82 1097.31L1074.46 1026.52C1077.5 1023.03 1077.13 1017.74 1073.64 1014.7L1025.33 972.64C1021.84 969.6 1016.54 969.97 1013.51 973.46L951.87 1044.25C948.83 1047.74 949.2 1053.03 952.69 1056.07Z" fill="#C65447"/>
<path d="M1024.15 1050.76C1024.84 1050.94 1049.81 1053.88 1049.81 1059.04C1049.81 1065.01 1042.49 1073 1035.59 1072.62C1032.79 1072.47 1019.91 1060.62 1019.91 1060.62L1024.15 1050.76Z" fill="#FFB27D"/>
<path d="M1036.98 901.94C1039.82 895.05 1041.48 884.55 1041.43 871.56L1043.32 871.93L1075.04 878.21C1075.04 878.21 1074.32 888.19 1074.3 897.6C1074.3 897.68 1074.3 897.76 1074.3 897.83C1074.26 906 1079.82 914.19 1066.72 917.43C1062.67 918.43 1031.02 916.4 1036.98 901.93V901.94Z" fill="#FFB27D"/>
<path d="M1075.04 878.22C1075.04 878.22 1074.32 888.2 1074.3 897.61C1056.55 897.11 1047.16 880.92 1043.32 871.94L1075.04 878.22Z" fill="#E8945B"/>
<path d="M1080.97 887.12C1080.97 887.12 1038.97 887.81 1038.94 861.65C1038.91 835.49 1033.47 817.96 1060.29 816.41C1087.11 814.86 1092.33 824.84 1094.46 833.57C1096.59 842.3 1091.9 886.27 1080.97 887.12Z" fill="#FFB27D"/>
<path d="M1079.41 815.77C1079.41 815.77 1067.91 846.46 1050.26 851C1032.61 855.54 1024.96 850.81 1024.96 850.81C1024.96 850.81 1038.5 840.06 1041.31 821.28C1041.31 821.28 1070.74 801.16 1079.41 815.76V815.77Z" fill="#163560"/>
<path d="M1076.56 818.26C1076.56 818.26 1085.09 821.45 1088.6 827.67C1092.03 833.75 1094.96 841.81 1094.28 851.69C1094.28 851.69 1102.94 830.83 1093.21 819.03C1082.88 806.51 1076.57 818.27 1076.57 818.27L1076.56 818.26Z" fill="#163560"/>
<path d="M1024.15 1050.76C1024.15 1050.76 1030.14 1048.84 1034.14 1049.4C1038.14 1049.96 1041.1 1049.32 1041.1 1050.44C1041.1 1051.56 1035.94 1052.08 1034.84 1052.62C1033.74 1053.16 1024.16 1050.76 1024.16 1050.76H1024.15Z" fill="#FFB27D"/>
<path d="M1016.69 904.68C1016.69 904.68 986.87 906.77 975.45 934.55C964.02 962.33 942.34 1008.98 942.34 1016.83C942.34 1024.68 954.45 1048.87 1019.5 1062.78C1019.5 1062.78 1026.23 1055.7 1025.82 1050.11C1025.82 1050.11 985.21 1015.23 985.32 1011.15C985.53 1003.44 991.98 993.26 1027.63 957.6C1037.32 947.9 1016.69 904.69 1016.69 904.69V904.68Z" fill="#AEC3FF"/>
<path d="M1048.25 948.29C1048.25 948.29 1037.06 917.66 1039.25 894.61C1039.25 894.61 1030.52 896.81 1026 903.31C1026 903.31 1023.95 938.56 1030.37 954.92C1030.37 954.92 1039.92 955.35 1042.01 954.22C1042.01 954.22 1037.84 961.28 1038.48 962.08C1039.12 962.88 1063.01 994.04 1063.01 994.04L1048.26 948.29H1048.25Z" fill="#8C9DF4"/>
<path d="M1097.63 980.36L1104.68 1254.86C1104.68 1254.86 1121.36 1255.5 1130.98 1245.24L1122.21 947.82C1122.21 947.82 1113.03 912.03 1094.96 907.5L1076.89 902.97L1097.63 980.36Z" fill="#AEC3FF"/>
<path d="M1074.3 897.61C1074.3 897.61 1074.31 901.87 1075.41 909.5C1078.37 930.17 1100.39 971.61 1097.89 990.1C1097.89 990.1 1100.21 957.91 1100.21 951.07L1093.8 946.58L1102.14 943.16C1102.14 943.16 1086.58 904.32 1074.32 897.61H1074.3Z" fill="#8C9DF4"/>
<path d="M1041.25 1155.15L979.082 1150.64L978.621 1156.98L1040.79 1161.49L1041.25 1155.15Z" fill="#8C9DF4"/>
<g opacity="0.3">
<path d="M978.62 1156.98C978.62 1156.98 974.09 1195.53 978.62 1199.06C983.15 1202.59 1030.47 1207.08 1034.87 1203.55C1039.27 1200.02 1040.79 1161.49 1040.79 1161.49L978.62 1156.98Z" fill="#8C9DF4"/>
</g>
<path d="M643.84 564.97C643.84 564.97 669.23 522.29 729.93 527.03C729.93 527.03 818.07 455.9 912.05 517.55C912.05 517.55 1011.96 502.27 1085.95 530.77C1135.28 549.77 1151.57 569.71 1151.57 569.71L643.83 564.97H643.84Z" fill="#F8FCFF"/>
<path d="M1161.44 522.63C1161.44 522.63 1179.97 475.84 1224.29 481.04C1224.29 481.04 1288.63 403.05 1357.25 470.64C1357.25 470.64 1430.19 453.89 1484.2 485.14C1520.21 505.98 1532.11 527.83 1532.11 527.83L1161.44 522.63Z" fill="#F8FCFF"/>
<path d="M1740.38 813.85C1740.38 813.85 1753.12 782.37 1783.58 785.87C1783.58 785.87 1827.81 733.4 1874.97 778.87C1874.97 778.87 1925.1 767.6 1962.23 788.63C1986.98 802.65 1995.16 817.35 1995.16 817.35L1740.38 813.85Z" fill="#F8FCFF"/>
<path d="M1021.47 682.07C1021.47 682.07 1036.21 656.05 1071.47 658.94C1071.47 658.94 1122.66 615.57 1177.25 653.16C1177.25 653.16 1235.28 643.85 1278.25 661.22C1306.9 672.81 1316.37 684.96 1316.37 684.96L1021.47 682.07Z" fill="#F8FCFF"/>
<path d="M2404.56 1355.06V1372.68C2404.56 1374.25 2404.19 1375.76 2403.52 1377.08C2401.9 1380.32 2398.53 1382.55 2394.68 1382.55H2391.52C2386.11 1382.55 2381.65 1378.12 2381.65 1372.68V1355.06C2381.65 1353.2 2382.18 1351.48 2383.08 1349.99V1349.96C2384.83 1347.09 2387.96 1345.18 2391.52 1345.18H2394.68C2400.12 1345.18 2404.55 1349.64 2404.55 1355.05L2404.56 1355.06Z" fill="#233862"/>
<g opacity="0.3">
<path d="M2403.53 1377.08C2401.91 1380.32 2398.54 1382.55 2394.69 1382.55H2391.53C2386.12 1382.55 2381.66 1378.12 2381.66 1372.68V1355.06C2381.66 1353.2 2382.19 1351.48 2383.09 1349.99C2383.28 1351.08 2387.47 1375.25 2403.52 1377.08H2403.53Z" fill="#233862"/>
</g>
<path d="M2248.07 1484.02H2296.86V1434.77H2245.96L2248.07 1484.02Z" fill="#172944"/>
<path d="M2401.93 1379.92L2162.21 1385.83V1259.42H2319.63C2334.64 1259.42 2348.38 1267.82 2355.22 1281.17L2365.52 1301.28L2401.93 1379.92Z" fill="white"/>
<path d="M2265.75 1476C2265.75 1489.37 2272.65 1504.11 2272.65 1504.11H2284.32C2294.57 1504.11 2302.89 1491.52 2302.89 1476C2302.89 1460.48 2282.9 1447.89 2272.65 1447.89C2262.4 1447.89 2265.75 1460.48 2265.75 1476Z" fill="#233862"/>
<path d="M2272.64 1504.11C2282.9 1504.11 2291.21 1491.52 2291.21 1476C2291.21 1460.48 2282.9 1447.89 2272.64 1447.89C2262.38 1447.89 2254.07 1460.48 2254.07 1476C2254.07 1491.52 2262.38 1504.11 2272.64 1504.11Z" fill="#2B478B"/>
<path d="M2272.88 1497.18C2280.61 1497.18 2286.87 1487.7 2286.87 1476C2286.87 1464.3 2280.61 1454.82 2272.88 1454.82C2265.15 1454.82 2258.89 1464.3 2258.89 1476C2258.89 1487.7 2265.15 1497.18 2272.88 1497.18Z" fill="#AFCDFB"/>
<path d="M2399.97 1476C2399.97 1489.37 2406.87 1504.11 2406.87 1504.11H2418.54C2428.8 1504.11 2437.11 1491.52 2437.11 1476C2437.11 1460.48 2417.12 1447.89 2406.87 1447.89C2396.62 1447.89 2399.97 1460.48 2399.97 1476Z" fill="#233862"/>
<path d="M2388.29 1476C2388.29 1491.53 2396.6 1504.11 2406.86 1504.11C2417.12 1504.11 2425.43 1491.52 2425.43 1476C2425.43 1460.48 2417.12 1447.89 2406.86 1447.89C2396.6 1447.89 2388.29 1460.48 2388.29 1476Z" fill="#2B478B"/>
<path d="M2091.74 1476C2091.74 1489.37 2098.64 1504.11 2098.64 1504.11H2110.31C2120.57 1504.11 2128.88 1491.52 2128.88 1476C2128.88 1460.48 2108.89 1447.89 2098.64 1447.89C2088.39 1447.89 2091.74 1460.48 2091.74 1476Z" fill="#233862"/>
<path d="M2080.07 1476C2080.07 1491.53 2088.38 1504.11 2098.64 1504.11C2108.9 1504.11 2117.21 1491.52 2117.21 1476C2117.21 1460.48 2108.9 1447.89 2098.64 1447.89C2088.38 1447.89 2080.07 1460.48 2080.07 1476Z" fill="#2B478B"/>
<path d="M2455.6 1462.74C2455.63 1474.49 2446.53 1479.32 2434.8 1479.32L2302.89 1480.46C2303.29 1478.15 2297.48 1479.32 2297.48 1476.85C2297.48 1458.67 2286.57 1443.92 2273.15 1443.92C2259.73 1443.92 2246.92 1453.8 2246.92 1471.98C2246.92 1474.45 2243.99 1477.82 2244.39 1480.13L2173.71 1473.93C2173.71 1473.93 2165.79 1448.14 2166.19 1430.15C2166.51 1414.49 2166.51 1383.82 2165.58 1376.34C2165.58 1375.22 2243.06 1375.09 2262.62 1375.01C2265.27 1374.98 2266.86 1374.98 2267.02 1374.98L2267.29 1375.17L2267.58 1375.38C2271.19 1377.9 2291.41 1392.07 2303.96 1400.38C2315.03 1407.68 2396.7 1410.65 2428.73 1411.55C2436.69 1411.76 2441.6 1411.84 2441.6 1411.84C2441.6 1411.84 2445.98 1416.32 2449.85 1423.41C2452.82 1428.9 2455.47 1435.96 2455.53 1443.68C2455.56 1448.48 2455.58 1454.27 2455.58 1459.95C2455.61 1460.88 2455.61 1461.81 2455.61 1462.74H2455.6Z" fill="white"/>
<path d="M2382.6 1374.99H2274.87C2272.38 1374.99 2270.12 1373.53 2269.09 1371.27L2242.42 1311.94C2241.54 1310 2242.98 1307.8 2245.1 1307.8H2358.75C2361.24 1307.8 2363.53 1309.29 2364.54 1311.59L2383.64 1355.24L2388.42 1366.15C2390.22 1370.32 2387.17 1374.99 2382.61 1374.99H2382.6Z" fill="#98BAF4"/>
<path d="M2332.42 1459.95C2332.4 1461.82 2332.32 1463.57 2332.21 1465.12C2331.44 1475.45 2321.06 1484.01 2321.06 1484.01H2296.86C2297.26 1481.7 2297.47 1479.31 2297.47 1476.84C2297.47 1470.66 2296.2 1464.87 2294.02 1459.94C2289.74 1450.34 2282 1443.91 2273.14 1443.91C2264.28 1443.91 2256.5 1450.34 2252.22 1459.94C2250.05 1464.88 2244.94 1470.28 2244.94 1476.46C2244.94 1478.93 2242.83 1478.88 2243.23 1481.19L2162.19 1484.01V1259.42H2232.17L2232.5 1301.27C2232.5 1301.27 2233.68 1307.54 2236.07 1313.15C2238.21 1318.15 2241.05 1324.82 2244.15 1332.08C2250.52 1346.96 2257.96 1364.32 2262.61 1375.01C2264.94 1380.42 2266.59 1384.11 2267.01 1384.91C2268.32 1387.4 2287.73 1397.92 2304.15 1407.26C2308.25 1409.59 2312.16 1411.84 2315.55 1413.88C2320.38 1416.79 2324.16 1419.25 2325.95 1420.86C2330.43 1424.9 2332.66 1445.86 2332.42 1459.94V1459.95Z" fill="#DFEBFD"/>
<path d="M2441.59 1411.84H2313.9L2267.28 1375.17L2267.01 1374.99H2395.81L2432.49 1404.49L2441.59 1411.84Z" fill="white"/>
<path d="M2330.43 1433.39L2318.89 1432.25C2314.86 1431.85 2311.59 1428.83 2310.88 1424.85L2308.23 1410.26C2308.18 1410.02 2308.15 1409.81 2308.18 1409.57C2316.41 1414.29 2323.33 1418.51 2325.96 1420.87C2327.87 1422.6 2329.38 1427.37 2330.44 1433.4L2330.43 1433.39Z" fill="#A8302D"/>
<path d="M2365.53 1301.28H2232.51C2232.51 1301.28 2232 1292.77 2228.66 1283.05C2225.69 1274.46 2220.55 1264.89 2211.56 1259.43H2320.26C2337.98 1259.43 2353.68 1268.89 2359.92 1283.05C2360.21 1283.64 2360.47 1284.22 2360.69 1284.81C2362.56 1289.73 2364.25 1295.23 2365.53 1301.28Z" fill="white"/>
<path d="M2330.46 1433.39L2318.89 1432.25C2314.86 1431.85 2311.59 1428.83 2310.88 1424.85L2308.23 1410.26C2308.18 1410.02 2308.15 1409.78 2308.18 1409.54C2316.41 1414.29 2323.33 1418.51 2325.96 1420.87C2327.87 1422.6 2329.38 1427.37 2330.47 1433.4L2330.46 1433.39Z" fill="#A2C2DD"/>
<path d="M2455.6 1462.74C2455.63 1474.49 2448.6 1485.13 2433.19 1484.53L2295.34 1484.55C2295.74 1482.24 2296.81 1478.91 2296.81 1476.44C2296.81 1470.26 2296.21 1464.89 2294.04 1459.95H2455.58C2455.61 1460.88 2455.61 1461.81 2455.61 1462.74H2455.6Z" fill="#233862"/>
<path d="M2248.78 1476.85C2248.78 1479.32 2248.97 1481.71 2249.36 1484.01H2162.19V1459.94H2252.22C2250.04 1464.88 2248.77 1470.66 2248.77 1476.84L2248.78 1476.85Z" fill="#233862"/>
<path d="M2365.7 1412.88H2417.92C2419.59 1412.88 2420.86 1415.13 2420.61 1417.62L2418.76 1435.77C2418.49 1438.44 2416.97 1440.41 2415.18 1440.41H2372.16C2369.4 1440.41 2366.97 1437.68 2366.17 1433.69L2363.07 1418.26C2362.53 1415.58 2363.86 1412.88 2365.71 1412.88H2365.7Z" fill="#233862"/>
<path d="M2383.63 1355.24C2322.04 1352.08 2280.38 1319.13 2267.8 1307.8H2358.74C2361.23 1307.8 2363.52 1309.29 2364.53 1311.59L2383.63 1355.24Z" fill="#AFCDFB"/>
<path d="M2186.84 1259.42V1472.95L1953.88 1476V1259.42H2186.84Z" fill="white"/>
<path d="M2365.53 1301.28H2232.51C2232.51 1301.28 2232 1292.77 2228.66 1283.05H2359.92C2360.21 1283.64 2360.47 1284.22 2360.69 1284.81C2362.56 1289.73 2364.25 1295.23 2365.53 1301.28Z" fill="#DFEBFD"/>
<path d="M2449.84 1423.41C2449.1 1424.63 2448.14 1425.43 2447.11 1425.61L2429.2 1428.93C2427.69 1429.22 2426.52 1426.6 2426.92 1423.89L2428.67 1411.84L2428.72 1411.55L2429.07 1409.08C2429.39 1406.96 2430.32 1405.34 2431.46 1404.89L2432.5 1404.49L2441.6 1411.84C2441.6 1411.84 2445.98 1416.32 2449.85 1423.41H2449.84Z" fill="#233862"/>
<path d="M2325.94 1407.26H1953.88V1426.19H2325.94V1407.26Z" fill="#EA6A60"/>
<path d="M2186.84 1298.34H1953.88V1317.27H2186.84V1298.34Z" fill="#EA6A60"/>
<path d="M2037.2 1361.84C2037.2 1343.53 2052.05 1328.68 2070.36 1328.68C2088.67 1328.68 2103.52 1343.53 2103.52 1361.84C2103.52 1380.15 2088.67 1395 2070.36 1395C2052.05 1395 2037.2 1380.15 2037.2 1361.84Z" fill="#EA6A60"/>
<path d="M2070.36 1391.2C2062.52 1391.2 2055.15 1388.15 2049.6 1382.6C2044.05 1377.05 2041 1369.68 2041 1361.84C2041 1354 2044.05 1346.63 2049.6 1341.08C2055.14 1335.53 2062.52 1332.48 2070.36 1332.48C2078.2 1332.48 2085.57 1335.53 2091.12 1341.08C2096.66 1346.62 2099.72 1354 2099.72 1361.84C2099.72 1369.68 2096.67 1377.05 2091.12 1382.6C2085.58 1388.15 2078.2 1391.2 2070.36 1391.2ZM2070.36 1335.19C2063.24 1335.19 2056.55 1337.96 2051.51 1343C2046.48 1348.04 2043.7 1354.73 2043.7 1361.85C2043.7 1368.97 2046.47 1375.66 2051.51 1380.7C2056.55 1385.73 2063.24 1388.51 2070.36 1388.51C2077.48 1388.51 2084.17 1385.74 2089.21 1380.7C2094.25 1375.66 2097.02 1368.97 2097.02 1361.85C2097.02 1354.73 2094.25 1348.04 2089.21 1343C2084.18 1337.97 2077.48 1335.19 2070.36 1335.19Z" fill="white"/>
<path d="M2089.32 1357.05H2075.15V1342.88H2065.57V1357.05H2051.4V1366.63H2065.57V1380.8H2075.15V1366.63H2089.32V1357.05Z" fill="white"/>
<path d="M2352.35 1435.56L2330.46 1433.39H2330.43L2318.89 1432.25C2314.86 1431.85 2311.59 1428.83 2310.88 1424.85L2308.23 1410.26C2308.18 1410.02 2308.15 1409.81 2308.18 1409.57V1409.54C2308.05 1406.46 2310.86 1403.97 2314.02 1404.61L2348.12 1411.53C2350.3 1411.98 2352.02 1413.6 2352.6 1415.72L2356.61 1430.53C2357.35 1433.24 2355.15 1435.86 2352.36 1435.57L2352.35 1435.56Z" fill="#233862"/>
<path d="M2232.96 1318.47L2255.91 1374.99H2216.53C2216.53 1374.99 2208.45 1373.64 2207.42 1357.13C2206.31 1339.51 2206.32 1309.1 2206.32 1309.1L2223.6 1309.02C2230.19 1310.02 2231.22 1313.63 2232.96 1318.47Z" fill="#98BAF4"/>
<path d="M2244.22 1345.97C2244.22 1345.97 2246.21 1368.81 2234.93 1375.07H2256L2244.22 1345.97Z" fill="#233862"/>
<path d="M2247.32 1361.26C2247.32 1361.26 2242.56 1357.87 2242.16 1355.07V1371.05H2248.38L2247.32 1361.27V1361.26Z" fill="#233862"/>
<path d="M2242.15 1355.06V1372.68C2242.15 1374.25 2241.78 1375.76 2241.11 1377.08C2239.49 1380.32 2236.12 1382.55 2232.27 1382.55H2229.11C2223.7 1382.55 2219.24 1378.12 2219.24 1372.68V1355.06C2219.24 1353.2 2219.77 1351.48 2220.67 1349.99V1349.96C2222.42 1347.09 2225.55 1345.18 2229.11 1345.18H2232.27C2237.71 1345.18 2242.14 1349.64 2242.14 1355.05L2242.15 1355.06Z" fill="#233862"/>
<path d="M2187.06 1476.85C2187.06 1479.32 2187.4 1481.71 2188.13 1484.01H2027.73V1459.94H2193.4C2189.4 1464.88 2187.05 1470.66 2187.05 1476.84L2187.06 1476.85Z" fill="#233862"/>
<path d="M2113.2 1476.85C2113.2 1479.32 2113.54 1481.71 2114.27 1484.01H1953.87V1459.94H2119.54C2115.54 1464.88 2113.19 1470.66 2113.19 1476.84L2113.2 1476.85Z" fill="#233862"/>
<path d="M2029.97 1484.03H1972.67C1971.46 1478.86 1967.81 1442.03 1999.93 1442.03C2029.11 1442.03 2031.26 1475.63 2029.98 1484.03H2029.97Z" fill="#172944"/>
<path d="M1990.6 1476C1990.6 1489.37 1997.5 1504.11 1997.5 1504.11H2009.17C2019.43 1504.11 2027.74 1491.52 2027.74 1476C2027.74 1460.48 2007.75 1447.89 1997.5 1447.89C1987.25 1447.89 1990.6 1460.48 1990.6 1476Z" fill="#233862"/>
<path d="M1978.93 1476C1978.93 1491.53 1987.24 1504.11 1997.5 1504.11C2007.76 1504.11 2016.07 1491.52 2016.07 1476C2016.07 1460.48 2007.76 1447.89 1997.5 1447.89C1987.24 1447.89 1978.93 1460.48 1978.93 1476Z" fill="#2B478B"/>
<path d="M1997.73 1497.18C2005.46 1497.18 2011.72 1487.7 2011.72 1476C2011.72 1464.3 2005.46 1454.82 1997.73 1454.82C1990 1454.82 1983.74 1464.3 1983.74 1476C1983.74 1487.7 1990 1497.18 1997.73 1497.18Z" fill="#AFCDFB"/>
<path d="M1277.44 822.86C1277.44 822.86 1266.08 798.72 1268.37 785.99C1270.66 773.26 1270.13 756.36 1287.11 749.83C1304.09 743.3 1305.59 749.59 1324.04 747.63C1341.92 745.73 1348.31 768.37 1350 777.99C1353.58 798.31 1347.46 811.04 1342.07 817.9C1337.41 823.83 1335.3 826.8 1335.3 826.8L1277.45 822.86H1277.44Z" fill="#233862"/>
<path d="M1230.26 1505.04C1230.26 1505.04 1230.26 1493.13 1231.96 1489.17C1233.66 1485.21 1239.88 1469.09 1239.88 1469.09H1264.2C1264.2 1469.09 1268.73 1483.8 1269.01 1488.6C1269.29 1493.41 1269.01 1505.03 1269.01 1505.03H1230.26V1505.04Z" fill="#233862"/>
<path d="M1384.7 1505.04C1384.7 1505.04 1384.7 1493.13 1383 1489.17C1381.3 1485.21 1375.08 1469.09 1375.08 1469.09H1350.76C1350.76 1469.09 1346.23 1483.8 1345.95 1488.6C1345.67 1493.41 1345.95 1505.03 1345.95 1505.03H1384.7V1505.04Z" fill="#233862"/>
<path d="M1233.31 1092.66C1233.31 1092.66 1237.56 1222.61 1231.2 1296.76C1224.84 1370.91 1231.24 1474.09 1231.24 1474.09C1231.24 1474.09 1251.59 1485.31 1273.65 1474.09C1273.65 1474.09 1297.84 1330.85 1297.69 1296.76C1297.53 1260.46 1324.02 1098.33 1324.02 1098.33L1233.3 1092.67L1233.31 1092.66Z" fill="#6BB7BF"/>
<path d="M1383.82 1474.09C1383.82 1474.09 1363.47 1485.31 1341.41 1474.09C1341.41 1474.09 1317.22 1330.85 1317.37 1296.76C1317.44 1281.43 1312.75 1243.64 1307.32 1205.12C1299.88 1152.42 1291.04 1098.33 1291.04 1098.33L1385.28 1092.44C1385.28 1092.44 1377.51 1222.61 1383.87 1296.76C1390.23 1370.91 1383.82 1474.09 1383.82 1474.09Z" fill="#6BB7BF"/>
<path d="M1251.62 881.36C1251.62 881.36 1216.56 885.52 1208.87 917.02C1201.17 948.52 1170.9 1028.56 1201.17 1046.64C1201.17 1046.64 1233.24 1003.67 1245.42 969.04C1257.61 934.41 1251.62 881.36 1251.62 881.36Z" fill="#AEC3FF"/>
<path d="M1370.8 898.17C1370.8 898.17 1406.07 893.73 1413.77 925.23C1421.47 956.73 1446.07 1027.06 1415.8 1045.15C1415.8 1045.15 1381.57 1003.68 1369.39 969.04C1357.2 934.41 1370.8 898.17 1370.8 898.17Z" fill="#AEC3FF"/>
<path d="M1287.25 836.69C1287.25 836.69 1286.39 863.21 1283 875.08L1256.14 893.82L1357.25 908.95L1333.14 875.63C1333.14 875.63 1325.86 840.08 1329.68 826.93C1333.5 813.78 1287.26 836.69 1287.26 836.69H1287.25Z" fill="#FFB27D"/>
<path d="M1287.1 840.36C1287.1 840.36 1295.1 859.61 1310.16 859.18C1325.22 858.76 1328.65 841.72 1328.65 841.72L1287.11 840.35L1287.1 840.36Z" fill="#ED985F"/>
<path d="M1308.43 851.74C1297.52 851.55 1277.43 837.02 1277.43 819.02V790.94C1277.43 784.37 1282.01 778.99 1287.61 778.99H1329.24C1334.84 778.99 1339.42 784.37 1339.42 790.94V817.43C1339.42 836.3 1320.94 851.96 1308.42 851.74H1308.43Z" fill="#FFB27D"/>
<path d="M1386.68 1150.54C1308.6 1164.01 1224.89 1153.1 1224.89 1153.1L1232.66 995.31C1232.45 993.03 1232.3 990.68 1232.24 988.28C1232.15 985.12 1232.21 981.39 1232.41 977.24C1233.97 944.13 1243.98 884.55 1251.61 881.35C1251.61 881.35 1262.95 877.14 1283 875.08C1283 875.48 1294.63 892.49 1308.44 894.38C1317.02 890.99 1323.76 888.09 1333.15 875.63C1338.65 876.27 1344.44 877.07 1350.58 878.23C1351.03 878.31 1351.49 878.4 1351.95 878.49C1358.68 879.81 1365.85 881.57 1373.53 884.03C1373.53 884.03 1383.44 887.88 1381.25 957L1386.69 1150.54H1386.68Z" fill="#ABDDDA"/>
<path d="M1299.74 833.65C1299.74 833.65 1303.14 838.25 1309.07 838.08C1315.01 837.92 1317.8 833.65 1317.8 833.65C1317.8 833.65 1307.78 832.01 1299.74 833.65Z" fill="white"/>
<path d="M1224.89 1029.57L1220.53 1264.52C1220.53 1264.52 1255.73 1273.62 1285.99 1275.55L1293.83 988.34L1283.06 891.13L1273.27 875.1C1273.27 875.1 1240.9 877.63 1221.52 893.42C1208.3 904.19 1202.19 940.93 1202.19 940.93L1232.66 972.94L1224.9 1029.59L1224.89 1029.57Z" fill="#AEC3FF"/>
<path d="M1391.5 1029.57L1395.86 1264.52C1395.86 1264.52 1360.66 1273.62 1330.4 1275.55L1324.03 996.9L1333.33 891.12L1343.12 875.09C1343.12 875.09 1375.4 877.74 1394.87 893.41C1415.76 910.22 1419.95 951.61 1419.95 951.61L1383.73 972.93L1391.49 1029.58L1391.5 1029.57Z" fill="#AEC3FF"/>
<path d="M1201.16 1046.64C1236.59 1056.18 1256.52 1031.53 1339.43 997.44L1336.92 984.21C1336.92 984.21 1241.6 985.32 1224.9 994.36C1203.18 1006.12 1198.26 1045.85 1201.17 1046.63L1201.16 1046.64Z" fill="#FFB27D"/>
<path d="M1270.31 975.18C1270.31 975.18 1234.51 973.15 1234.13 991.41L1267.23 989.91L1270.32 975.18H1270.31Z" fill="#FFB27D"/>
<path d="M1365.06 984.49C1365.06 984.49 1391.85 977.7 1396.34 995.64C1400.83 1013.58 1357.82 995.64 1357.82 995.64L1365.06 984.49Z" fill="#ED985F"/>
<path d="M1297.9 1015.87C1297.9 1015.87 1287.71 1003.61 1263.06 988.08L1304.91 995.98L1317.68 1006.45L1311.86 1009.41L1297.9 1015.87Z" fill="#ED985F"/>
<path d="M1340.22 985.84L1375.9 983.23L1373.41 993.42L1340.22 985.84Z" fill="#ED985F"/>
<path d="M1234.13 991.41C1234.13 991.41 1258.61 987.22 1258.18 986.9C1257.75 986.58 1249.28 984.01 1247.34 984.98C1245.4 985.94 1234.13 991.41 1234.13 991.41Z" fill="#ED985F"/>
<path d="M1285.44 861.35C1285.44 861.35 1270.62 869.55 1268.02 877.23C1268.02 877.23 1260.84 908.5 1270.31 929.55L1285.44 925.88L1277.67 935.43C1277.67 935.43 1281.68 978.87 1293.83 988.32C1293.83 988.32 1284.35 872.98 1285.44 861.35Z" fill="#8C9DF4"/>
<path d="M1330.67 861.35C1330.67 861.35 1345.49 869.55 1348.09 877.23C1348.09 877.23 1357.56 906.29 1348.09 927.35L1330.67 925.88L1343.13 936.16C1343.13 936.16 1336.19 987.43 1324.04 996.88C1324.04 996.88 1331.76 872.98 1330.67 861.34V861.35Z" fill="#8C9DF4"/>
<path d="M1415.8 1045.15C1415.8 1045.15 1342.26 1037.17 1256.13 982.83L1270.3 975.18C1270.3 975.18 1383.25 987.44 1397.41 998.08C1419.62 1014.77 1432.45 1041.27 1415.8 1045.15Z" fill="#FFB27D"/>
<path d="M1270.31 939.11H1246.16V949.72H1270.31V939.11Z" fill="#EBF3FA"/>
<path d="M1294.48 779C1294.48 779 1305.58 789.08 1319.78 787.09C1333.98 785.1 1333.65 779.16 1335.63 781.67C1337.62 784.18 1337.83 804.58 1340.59 805.91L1342.06 779L1313.9 762.81L1273.5 767.46L1277.43 806.88C1277.43 806.88 1276.68 792.43 1282.8 788.27C1288.92 784.11 1294.47 778.99 1294.47 778.99L1294.48 779Z" fill="#233862"/>
<path d="M402.31 1504.17C402.31 1504.17 402.31 1492.26 404.01 1488.3C405.71 1484.34 411.93 1468.22 411.93 1468.22H436.25C436.25 1468.22 440.78 1482.93 441.06 1487.74C441.34 1492.55 441.06 1504.17 441.06 1504.17H402.31Z" fill="#233862"/>
<path d="M556.74 1504.17C556.74 1504.17 556.74 1492.26 555.04 1488.3C553.34 1484.34 547.12 1468.22 547.12 1468.22H522.8C522.8 1468.22 518.27 1482.93 517.99 1487.74C517.71 1492.55 517.99 1504.17 517.99 1504.17H556.74Z" fill="#233862"/>
<path d="M405.36 1091.79C405.36 1091.79 409.62 1221.74 403.25 1295.89C396.89 1370.04 403.3 1473.23 403.3 1473.23C403.3 1473.23 423.65 1484.45 445.71 1473.23C445.71 1473.23 469.9 1329.99 469.75 1295.89C469.59 1259.59 496.08 1097.46 496.08 1097.46L405.36 1091.8V1091.79Z" fill="#2B478B"/>
<path d="M555.86 1473.21C555.86 1473.21 535.51 1484.43 513.45 1473.21C513.45 1473.21 489.26 1329.97 489.41 1295.88C489.48 1280.55 484.79 1242.77 479.36 1204.25C471.92 1151.55 463.08 1097.46 463.08 1097.46L557.32 1091.57C557.32 1091.57 549.55 1221.74 555.91 1295.88C562.27 1370.03 555.86 1473.21 555.86 1473.21Z" fill="#2B478B"/>
<path d="M489.42 1295.88C489.49 1280.55 484.8 1242.77 479.37 1204.25C485.01 1181.24 498.76 1159.09 498.76 1159.09C516.15 1207.88 489.43 1295.88 489.43 1295.88H489.42Z" fill="#233862"/>
<path d="M423.66 880.48C423.66 880.48 388.6 884.64 380.91 916.14C373.21 947.64 342.94 1027.68 373.21 1045.77C373.21 1045.77 405.28 1002.8 417.46 968.17C429.65 933.54 423.66 880.49 423.66 880.49V880.48Z" fill="#FFB27D"/>
<path d="M542.85 897.29C542.85 897.29 578.12 892.85 585.82 924.35C593.52 955.85 618.12 1026.18 587.85 1044.27C587.85 1044.27 553.62 1002.8 541.44 968.16C529.25 933.53 542.85 897.29 542.85 897.29Z" fill="#FFB27D"/>
<path d="M459.3 835.82C459.3 835.82 458.44 862.33 455.05 874.21L428.19 892.95L529.3 908.08L505.19 874.76C505.19 874.76 497.91 839.21 501.73 826.06C505.55 812.91 459.31 835.82 459.31 835.82H459.3Z" fill="#FFB27D"/>
<path d="M459.15 839.48C459.15 839.48 467.15 858.73 482.21 858.3C497.27 857.88 500.7 840.84 500.7 840.84L459.16 839.47L459.15 839.48Z" fill="#ED985F"/>
<path d="M450.16 823.89C450.16 823.89 445.3 799.61 441.9 792.26C438.51 784.91 435.68 752.1 473.29 750.4C473.29 750.4 487.71 752.1 495.63 747.29C495.63 747.29 495.63 752.1 493.65 753.79C493.65 753.79 506.66 750.68 516.84 761.99C527.02 773.3 510.05 812.9 510.9 822.23L450.15 823.88L450.16 823.89Z" fill="#2C3A64"/>
<path d="M480.48 850.86C469.57 850.67 449.48 836.14 449.48 818.14V790.06C449.48 783.49 454.06 778.11 459.66 778.11H501.29C506.89 778.11 511.47 783.49 511.47 790.06V816.55C511.47 835.42 492.99 851.08 480.47 850.86H480.48Z" fill="#FFB27D"/>
<path d="M449.48 805.06C449.48 805.06 449.54 788.19 462.9 785.59C476.26 783 506.17 793.81 510.42 781.51C514.66 769.21 452.61 769.42 449.48 777.27C446.36 785.12 449.48 805.06 449.48 805.06Z" fill="#2C3A64"/>
<path d="M563.05 956.64L558.73 1149.66C480.65 1163.13 396.94 1152.23 396.94 1152.23L404.71 994.44C404.51 992.16 404.35 989.81 404.29 987.41C404.2 984.25 404.26 980.52 404.46 976.37C406.02 943.26 416.03 883.68 423.66 880.47C423.66 880.47 435 876.26 455.05 874.2C455.05 874.6 466.68 891.61 480.49 893.5C489.07 890.11 495.81 887.21 505.2 874.75C510.7 875.39 516.49 876.19 522.63 877.35C523.08 877.43 523.54 877.52 524 877.61C530.73 878.93 537.91 880.69 545.58 883.15C545.58 883.15 555.5 887 553.3 956.12L563.06 956.63L563.05 956.64Z" fill="#ABDDDA"/>
<path d="M471.79 832.78C471.79 832.78 475.19 837.38 481.12 837.21C487.06 837.05 489.85 832.78 489.85 832.78C489.85 832.78 479.83 831.14 471.79 832.78Z" fill="white"/>
<path d="M373.21 1045.77C408.64 1055.31 428.57 1030.66 511.48 996.57L508.97 983.34C508.97 983.34 413.65 984.45 396.95 993.5C375.23 1005.26 370.31 1044.99 373.22 1045.77H373.21Z" fill="#FFB27D"/>
<path d="M440.07 876.34L431.72 901.07L431.33 902.2L431.21 902.53L430.61 904.34L420.26 934.97L419.23 938.02L407.84 971.75C406.77 971.85 405.72 971.94 404.7 972.02C375.06 974.1 360.38 965.26 360.38 965.26C360.38 965.26 366.47 925.82 381.22 903.37C390.87 888.68 413.07 881.64 427.27 878.52C427.73 878.43 428.17 878.33 428.6 878.24C435.4 876.82 440.05 876.33 440.05 876.33L440.07 876.34Z" fill="#ABDDDA"/>
<path d="M535.24 880.48C535.24 880.48 561.45 884.33 578.77 904.92C596.09 925.51 600.58 961.43 600.58 961.43C600.58 961.43 576.53 971.69 548.31 969.13C520.09 966.56 535.25 880.49 535.25 880.49L535.24 880.48Z" fill="#ABDDDA"/>
<path d="M540.49 935.16H504.33V948.92H540.49V935.16Z" fill="#EBF3FA"/>
<path d="M421.53 964.74L423.23 963.96C423.13 963.73 412.86 940.9 419.77 916.22C421.78 909.05 427.96 903.59 435.16 902.63C441.94 901.73 448.09 905.02 452.03 911.66C461.38 927.41 444.36 965.54 444.19 965.92L445.9 966.69C445.94 966.59 450.34 956.79 453.49 945.12C457.76 929.29 457.81 917.71 453.65 910.7C449.31 903.39 442.48 899.77 434.92 900.77C426.99 901.82 420.17 907.82 417.97 915.71C410.87 941.08 421.42 964.51 421.53 964.74Z" fill="#2B478B"/>
<path d="M447.65 967.04C448.05 965.6 447.21 964.12 445.78 963.72C444.35 963.32 442.86 964.16 442.46 965.59C442.06 967.02 442.9 968.51 444.33 968.91C445.76 969.31 447.25 968.47 447.65 967.04Z" fill="#2B478B"/>
<path d="M425.19 965.14C425.59 963.71 424.75 962.22 423.32 961.82C421.89 961.42 420.4 962.26 420 963.69C419.6 965.12 420.44 966.61 421.87 967.01C423.3 967.41 424.79 966.57 425.19 965.14Z" fill="#2B478B"/>
<path d="M438.57 902.38C438.57 902.38 438.48 902.38 438.43 902.36C438.08 902.28 437.87 901.94 437.95 901.59C437.99 901.41 442.12 883.5 451.31 873.13C451.54 872.86 451.95 872.84 452.22 873.08C452.48 873.31 452.51 873.72 452.27 873.98C443.3 884.11 439.25 901.7 439.21 901.87C439.14 902.17 438.88 902.37 438.59 902.37L438.57 902.38Z" fill="#2B478B"/>
<path d="M442.35 974.3C442.35 974.3 406.55 972.27 406.17 990.53L439.27 989.03L442.35 974.3Z" fill="#FFB27D"/>
<path d="M537.1 983.62C537.1 983.62 563.89 976.83 568.38 994.77C572.87 1012.71 529.86 994.77 529.86 994.77L537.1 983.62Z" fill="#ED985F"/>
<path d="M524.91 904.67C524.65 904.67 524.4 904.51 524.31 904.25C518.1 887.24 507.36 874.75 507.26 874.63C507.03 874.36 507.06 873.96 507.32 873.72C507.59 873.49 507.99 873.52 508.23 873.78C508.34 873.91 519.23 886.56 525.52 903.8C525.64 904.13 525.47 904.5 525.14 904.62C525.07 904.65 524.99 904.66 524.92 904.66L524.91 904.67Z" fill="#2B478B"/>
<path d="M531.17 905.41C531.17 901.95 528.36 899.14 524.9 899.14C521.44 899.14 518.63 901.95 518.63 905.41C518.63 908.87 521.44 911.68 524.9 911.68C528.36 911.68 531.17 908.88 531.17 905.41Z" fill="#2B478B"/>
<path d="M527.76 905.41C527.76 903.83 526.48 902.56 524.91 902.56C523.34 902.56 522.06 903.84 522.06 905.41C522.06 906.98 523.34 908.26 524.91 908.26C526.48 908.26 527.76 906.98 527.76 905.41Z" fill="#6980E2"/>
<path d="M469.95 1014.99C469.95 1014.99 459.76 1002.73 435.11 987.2L476.96 995.1L489.73 1005.57L483.91 1008.53L469.95 1014.99Z" fill="#ED985F"/>
<path d="M512.26 984.96L547.94 982.35L545.45 992.54L512.26 984.96Z" fill="#ED985F"/>
<path d="M587.85 1044.27C587.85 1044.27 514.31 1036.29 428.18 981.95L442.35 974.3C442.35 974.3 555.3 986.56 569.46 997.2C591.67 1013.89 604.5 1040.39 587.85 1044.27Z" fill="#FFB27D"/>
<path d="M406.17 990.53C406.17 990.53 430.65 986.34 430.22 986.02C429.79 985.7 421.32 983.13 419.38 984.1C417.44 985.06 406.17 990.53 406.17 990.53Z" fill="#ED985F"/>
<path d="M1505.53 978.04C1504.29 980.38 1496.06 1068.01 1502.53 1079.55C1509 1091.08 1539.53 1057.57 1540.28 1001.01C1540.92 953.36 1505.53 978.05 1505.53 978.05V978.04Z" fill="#FFB27D"/>
<path d="M1445.16 1114.42L1565.79 1151.81L1592.15 1066.75L1471.52 1029.37L1445.16 1114.42Z" fill="#233862"/>
<path d="M1502.67 1483.3L1515.1 1487.93C1515.1 1487.93 1569.07 1413.08 1575.71 1347.22C1576.9 1335.46 1576.5 1324.07 1573.93 1313.55C1573.93 1313.55 1574.46 1310.54 1575.38 1305.21C1575.81 1302.72 1576.33 1299.73 1576.93 1296.3C1578.68 1286.25 1581.1 1272.49 1583.86 1256.83C1590.21 1220.79 1598.44 1174.71 1604.83 1140.84L1601.48 1139.76L1565.25 1128.07L1557.76 1104.29L1530.79 1097.19C1530.79 1097.19 1524.76 1108.98 1519.38 1164.66C1518.39 1171.96 1517.48 1180.02 1516.8 1188.75C1514.7 1215.41 1514.55 1248.48 1519.37 1286.29C1520.61 1295.97 1522.17 1305.96 1524.11 1316.23C1525.53 1323.76 1525.74 1334.01 1525.14 1345.79C1522.42 1399.63 1502.66 1483.3 1502.66 1483.3H1502.67Z" fill="#2B478B"/>
<path d="M1516.81 1188.76L1575.39 1305.21C1575.82 1302.72 1576.34 1299.73 1576.94 1296.3C1578.69 1286.25 1581.11 1272.49 1583.87 1256.83C1590.22 1220.79 1598.45 1174.71 1604.84 1140.84L1601.49 1139.76L1565.26 1128.07L1557.77 1104.29L1530.8 1097.19C1530.8 1097.19 1524.77 1108.98 1519.39 1164.66C1518.4 1171.96 1517.49 1180.02 1516.81 1188.75V1188.76Z" fill="#233862"/>
<path d="M1542.58 1112.14L1543.94 1100.51C1566.66 1106.54 1627.36 1083.65 1627.36 1083.65C1627.36 1083.65 1649.37 1103 1646.48 1149.37C1645.07 1172 1642.49 1268.18 1639.8 1296.64C1638.83 1306.95 1637.98 1314.3 1637.63 1317.23C1637.63 1317.24 1637.63 1317.25 1637.63 1317.26C1637.52 1318.15 1637.84 1319 1638.29 1319.78C1642.25 1326.5 1645.53 1333.5 1648.22 1340.67C1674.63 1411.04 1644.15 1497.71 1644.15 1497.71L1636.24 1494.52C1636.24 1494.52 1618.9 1398.07 1604.81 1355.46C1602.42 1348.23 1600.12 1342.55 1598.02 1339.16C1591.89 1329.27 1586.21 1313.11 1581.05 1293.9C1571.3 1257.57 1563.44 1210.3 1558.22 1173.82C1557.5 1173.85 1542.6 1112.15 1542.6 1112.15L1542.58 1112.14Z" fill="#2B478B"/>
<path d="M1598.16 1504.17H1660.74C1660.74 1504.17 1662.24 1494.63 1658.97 1487.39C1655.84 1480.45 1650.93 1477.29 1652.11 1468.89C1648.13 1472.98 1641.65 1477.57 1632.6 1476.35C1631.49 1478.15 1625.44 1487.77 1621.74 1490.43C1617.65 1493.37 1599.41 1492.32 1598.15 1504.17H1598.16Z" fill="#233862"/>
<path d="M1463.78 1504.17H1526.36C1526.36 1504.17 1528.7 1494.19 1524.59 1487.39C1520.95 1481.38 1522.35 1477.96 1525.04 1472.98C1522.21 1474.14 1518.54 1475.2 1514.5 1474.97C1511.38 1474.79 1508.09 1473.38 1505.19 1471.7C1502.5 1474.77 1490.96 1487.84 1487.36 1490.43C1483.27 1493.37 1465.03 1492.32 1463.77 1504.17H1463.78Z" fill="#233862"/>
<path d="M1610.82 790.87C1611.31 789.19 1617.25 771.23 1645.35 777.33C1645.35 777.33 1631.24 775.5 1627.35 780.92C1627.35 780.92 1638.56 775.84 1645.55 780.15C1652.54 784.47 1653.63 798.9 1652.57 803.29C1651.51 807.68 1643.72 820.72 1638.59 820.7C1636.65 820.7 1634.58 820.04 1632.75 819.23C1633.53 821.56 1634.22 824.09 1634.8 826.86C1640.14 852.49 1623.03 871.89 1614.25 867.05C1608.61 863.94 1604.3 873.81 1604.3 873.81L1557.68 811.5C1557.68 811.5 1590.49 772.38 1610.82 790.88V790.87Z" fill="#2C3A64"/>
<path d="M1571.38 956.42C1609.99 968.47 1616.15 907.94 1613.69 907.63C1609.53 903.92 1604.01 889.59 1604.18 868L1602.29 868.36L1570.68 874.49C1570.68 874.49 1571.35 884.44 1571.34 893.8C1571.33 901.12 1570.88 908.09 1569.38 909.68C1566.92 910.02 1565.45 910.25 1565.45 910.25C1565.45 910.25 1565.45 910.25 1565.43 910.28C1564.96 910.93 1561.08 953.2 1571.38 956.42Z" fill="#FFB27D"/>
<path d="M1570.68 874.5C1570.68 874.5 1571.36 884.44 1571.34 893.81C1589.02 893.38 1598.42 877.29 1602.29 868.37L1570.68 874.5Z" fill="#ED985F"/>
<path d="M1564.74 883.34C1564.74 883.34 1606.56 884.19 1606.69 858.14C1606.82 832.09 1612.31 814.66 1585.61 813.01C1558.92 811.36 1553.68 821.28 1551.52 829.96C1549.36 838.64 1553.86 882.44 1564.74 883.33V883.34Z" fill="#FFB27D"/>
<path d="M1552.82 815.49C1559.32 807.68 1564.19 809.42 1566.92 811.79C1589.83 799.31 1604.48 817.95 1604.48 817.95C1607.2 836.65 1620.64 847.41 1620.64 847.41C1620.64 847.41 1613 852.09 1595.44 847.5C1590.08 846.1 1585.3 842.27 1581.24 837.62C1588.31 849.57 1597.95 858.19 1597.95 858.19C1577 848.4 1568.68 819.18 1567.86 816.09C1565.3 818.37 1560.25 823.33 1558.69 828.21C1556.58 834.84 1555.59 848.49 1551.61 848.01C1551.61 848.01 1543.06 827.2 1552.81 815.49H1552.82Z" fill="#2C3A64"/>
<path d="M1609.34 900.5C1609.34 900.5 1615.91 902.64 1616.26 907.28C1616.26 907.28 1598.65 940.18 1579.18 942.05L1609.34 900.5Z" fill="#91CECF"/>
<path d="M1517.54 1056.99L1502.43 1143.16C1511.35 1148.62 1519.96 1153.3 1528.24 1157.32C1530.53 1150.58 1534.77 1142.96 1535.04 1142.49C1533.83 1146.92 1536.88 1156.73 1538.79 1162.13C1615.86 1195.33 1662.38 1169.82 1662.38 1169.82C1650.82 1084.7 1659.39 944.56 1657.31 934.54C1653.36 915.52 1616.27 907.26 1616.27 907.26C1602.7 931.03 1579.18 942.03 1579.18 942.03C1570.33 933.29 1568.03 909.88 1568.03 909.88L1552.57 913.68C1542.57 916.14 1533.31 921.05 1525.9 928.2C1525.24 928.85 1524.57 929.51 1523.94 930.19C1516.3 938.37 1496.41 991.1 1496.41 991.1C1496.41 991.1 1500.58 1005.59 1508.25 1012.89C1512.17 1016.62 1517.28 1020.15 1523.34 1023.85L1517.54 1056.97V1056.99Z" fill="#ABDDDA"/>
<path d="M1579.18 942.04C1579.18 942.04 1569.53 910.1 1570.65 905.96C1570.65 905.96 1563.09 906.9 1562.43 911.27C1562.43 911.27 1570.98 937.93 1579.18 942.04Z" fill="#91CECF"/>
<path d="M1574.25 868.4C1574.25 868.4 1572.39 872.47 1569.78 872.92C1567.17 873.37 1563.06 873.35 1562.13 872.92C1561.2 872.49 1559.74 869.62 1559.12 868.73C1559.12 868.73 1563.81 868.22 1573.64 868.4H1574.26H1574.25Z" fill="white"/>
<path d="M1508.25 1012.9C1512.31 1016.48 1517.28 1020.16 1523.34 1023.86C1523.34 1023.86 1534.92 980.55 1531.47 977.53C1528.02 974.51 1521.68 1003 1508.24 1012.9H1508.25Z" fill="#91CECF"/>
<path d="M1676.62 963.54C1676.62 963.54 1730.6 1037.03 1725.36 1061.99C1721.19 1081.87 1666.57 1127.57 1666.57 1127.57L1652.47 1118.47C1652.47 1118.47 1686.58 1069.04 1683.59 1054.56C1681.26 1043.29 1647.44 1000.59 1647.44 1000.59L1676.62 963.54Z" fill="#FFB27D"/>
<path d="M1640.58 916.41C1640.58 916.41 1670.52 932.49 1696.29 983.53C1696.29 983.53 1681.09 1003.76 1650.81 1013.58C1620.54 1023.4 1621.56 964.91 1621.56 964.91L1640.58 916.41Z" fill="#ABDDDA"/>
<path d="M1577.66 973.87L1540.53 973.96L1540.29 1004.45L1556.58 1013.62L1576.82 1005.81L1577.66 973.87Z" fill="#91CECF"/>
<path d="M1656.12 1119.39C1656.12 1119.39 1640.89 1113.59 1632.37 1115.86C1627.56 1117.14 1618.63 1134.14 1624.19 1136.7C1629.75 1139.26 1636.03 1130.18 1642.87 1131.89C1649.71 1133.6 1658.18 1143.54 1666.57 1127.56L1656.12 1119.38V1119.39Z" fill="#FFB27D"/>
<path d="M1655.3 1117.47C1655.3 1117.47 1649.45 1114.82 1646.8 1112.98C1644.15 1111.14 1642.55 1114.42 1646.8 1117.47C1651.05 1120.52 1652.57 1119.15 1652.57 1119.15L1655.3 1117.47Z" fill="#FFB27D"/>
<path d="M1449.49 1115.6C1449.49 1115.6 1466.76 1107.4 1470.28 1116.6C1473.8 1125.8 1467.72 1133.52 1461.94 1131.7C1456.15 1129.89 1445.83 1123.73 1449.49 1115.6Z" fill="#FFB27D"/>
<path d="M1623.14 1005.02L1621.79 1003.72C1621.96 1003.54 1639.18 985.37 1640.79 959.78C1641.26 952.35 1637.22 945.15 1630.74 941.88C1624.63 938.8 1617.74 939.88 1611.84 944.84C1597.82 956.63 1601.32 998.24 1601.35 998.66L1599.48 998.83C1599.48 998.72 1598.55 988.02 1599.43 975.96C1600.62 959.61 1604.39 948.66 1610.63 943.41C1617.14 937.94 1624.78 936.77 1631.59 940.21C1638.73 943.82 1643.19 951.73 1642.67 959.9C1641.01 986.19 1623.32 1004.83 1623.15 1005.02H1623.14Z" fill="#2B478B"/>
<path d="M1597.72 998.57C1597.81 997.08 1599.1 995.95 1600.58 996.05C1602.07 996.14 1603.2 997.42 1603.1 998.91C1603.01 1000.4 1601.72 1001.53 1600.24 1001.43C1598.75 1001.34 1597.62 1000.05 1597.72 998.57Z" fill="#2B478B"/>
<path d="M1619.56 1004.18C1619.65 1002.69 1620.93 1001.56 1622.42 1001.66C1623.91 1001.75 1625.04 1003.03 1624.94 1004.52C1624.85 1006.01 1623.57 1007.14 1622.08 1007.04C1620.59 1006.95 1619.46 1005.67 1619.56 1004.18Z" fill="#2B478B"/>
<path d="M1627.83 940.56C1627.83 940.56 1627.78 940.56 1627.76 940.56C1627.41 940.52 1627.15 940.2 1627.2 939.85C1627.22 939.67 1629.18 921.72 1624.06 909.21C1623.93 908.88 1624.08 908.51 1624.41 908.37C1624.74 908.23 1625.11 908.39 1625.25 908.72C1630.5 921.54 1628.5 939.81 1628.48 939.99C1628.44 940.32 1628.17 940.56 1627.84 940.56H1627.83Z" fill="#2B478B"/>
<path d="M1549.15 945.38H1549.13C1548.78 945.37 1548.5 945.07 1548.51 944.71C1549.21 926.37 1555.69 910.98 1555.75 910.83C1555.89 910.5 1556.27 910.35 1556.59 910.49C1556.92 910.63 1557.07 911.01 1556.93 911.33C1556.87 911.48 1550.48 926.66 1549.79 944.76C1549.78 945.1 1549.49 945.38 1549.15 945.38Z" fill="#2B478B"/>
<path d="M1543.61 947.98C1542.55 944.69 1544.36 941.16 1547.65 940.09C1550.94 939.03 1554.47 940.84 1555.54 944.13C1556.6 947.42 1554.79 950.95 1551.5 952.02C1548.21 953.08 1544.68 951.27 1543.61 947.98Z" fill="#2B478B"/>
<path d="M1546.86 946.94C1546.38 945.44 1547.2 943.83 1548.7 943.35C1550.2 942.87 1551.81 943.69 1552.29 945.19C1552.77 946.69 1551.95 948.3 1550.45 948.78C1548.95 949.26 1547.34 948.44 1546.86 946.94Z" fill="#6980E2"/>
<path d="M701.22 1504.28H741.65C741.35 1502.16 740.32 1495.71 738.42 1489.77C737.76 1487.7 737 1485.69 736.13 1483.94C732.2 1476.09 707.22 1481.08 707.22 1481.08C707.22 1481.08 704.9 1483.07 703.09 1490.66C702.29 1494 701.58 1498.44 701.21 1504.27L701.22 1504.28Z" fill="#233862"/>
<path d="M775.44 884.19C775.44 884.19 807.65 889.85 814.94 908.86C822.22 927.87 863.37 1235.02 863.37 1235.02C863.37 1235.02 843 1251.16 799.26 1245.37C755.52 1239.57 775.44 884.19 775.44 884.19Z" fill="#AEC3FF"/>
<path d="M823.39 1492.79C823.5 1498.29 824.19 1503.5 826.19 1505.55H906.15C905.13 1502.66 902.25 1498.3 894.05 1496.97C884.72 1495.46 870.18 1490.97 861.69 1481.99C858.66 1478.8 856.41 1475.04 855.43 1470.64C851.67 1453.89 824.32 1475.77 824.32 1475.77C824.32 1475.77 823.22 1484.59 823.39 1492.78V1492.79Z" fill="#233862"/>
<path d="M857.82 1480.81C848.88 1483.66 831.81 1492.36 820.95 1488.27C813.94 1485.63 774.74 1372.25 772.2 1322.66C772.01 1319.05 771.3 1314.02 770.19 1307.89C767.87 1295.09 763.81 1277.51 759.13 1258.1C746.59 1206.1 729.62 1141.05 729.99 1120.26C730.56 1087.99 826.16 1113.5 826.16 1113.5C826.16 1113.5 832.74 1139.97 834.05 1178.3C836.65 1254.37 843.78 1382.87 863.2 1472.11C864.02 1475.9 861.52 1479.64 857.81 1480.81H857.82Z" fill="#59A9AD"/>
<path d="M791.47 1120.37L740.93 1486.66C740.93 1486.66 718.74 1492.01 701.47 1487.73C701.47 1487.73 686.68 1292.92 687.91 1245.82C689.14 1198.72 677.29 1119.8 690.62 1111.09C703.94 1102.39 791.47 1120.36 791.47 1120.36V1120.37Z" fill="#6BB7BF"/>
<path d="M684.23 900.97C684.23 900.97 737.34 866.63 775.44 884.19C781.51 886.99 788.43 894.8 793.39 900.26C807.16 915.43 834.07 1156.46 834.07 1156.46C834.07 1156.46 757.69 1182.33 684.24 1147.68V900.97H684.23Z" fill="white"/>
<path d="M778.46 883.32C778.46 883.32 832.23 905.36 839.51 922.29C846.79 939.22 870.46 1043.19 870.46 1055.38C870.46 1067.57 829.25 1058.11 822.62 1038.44C817.11 1022.11 798.53 971.95 788.73 940.22L778.46 883.32Z" fill="#AEC3FF"/>
<path d="M767.29 900.11C755.55 902.41 738.31 899.96 725.68 891.64C731.38 878.03 733.72 867.28 734.55 860.32C734.6 859.95 734.63 859.59 734.67 859.25C735.05 855.64 734.99 853.2 734.82 852.08H765.17C765.17 852.08 773.47 855.87 773.47 858.49C773.47 859.89 773.48 861.23 773.51 862.51C773.57 866 773.71 869.05 773.89 871.66C774.47 880.18 775.44 884.19 775.44 884.19C775.44 884.19 779.15 897.78 767.3 900.11H767.29Z" fill="#FFB27D"/>
<path d="M773.88 871.66C750.89 876.1 737.54 863.54 734.55 860.32C734.13 859.86 733.91 859.59 733.91 859.59C734.15 859.47 734.41 859.36 734.67 859.25C743.23 855.78 762.65 858.54 773.49 862.51C773.55 866 773.69 869.05 773.87 871.66H773.88Z" fill="#E2915A"/>
<path d="M727.04 847.09C731.15 869.2 759.68 868.47 772.01 867.09C775.48 866.7 777.66 866.26 777.66 866.26C781.57 865.22 783.75 859.05 784.77 850.98C786.78 835.01 784.24 811.56 781.54 805.56C777.48 796.54 769.83 786.77 741.1 793.82C712.36 800.87 721.77 818.77 727.04 847.1V847.09Z" fill="#FFB27D"/>
<path d="M782.61 793.22C778.68 787.78 770.36 781.14 762.8 777.05C746.55 768.26 725.76 777.33 725.67 777.37C702.2 787.69 696.07 805.64 708.52 833.61C721.68 863.19 734.2 859.86 734.2 859.86C734.2 859.86 731.54 858.2 731.78 848.99C731.79 848.47 731.81 848.03 731.84 847.65C731.96 845.76 731.3 843.87 729.88 842.61C726.97 840.01 725.54 832.14 727.99 829.95C730.93 827.31 735.07 830.52 736.39 832.99C737.54 834.73 739.61 835.34 741.54 834.13C748.84 829.51 744.1 820.28 751.08 814.63C758.06 808.98 772.22 813.72 782.69 809.22C796.4 804.11 785.57 797.34 782.61 793.24V793.22Z" fill="#233862"/>
<path d="M785.88 1257.59C781.26 1258.78 776.68 1259.76 772.13 1260.51C768.11 1261.2 764.1 1261.71 760.09 1262.05C737.36 1264.03 714.53 1260.83 687.84 1253.18C681.83 1251.46 675.62 1249.5 669.18 1247.34C668.49 1247.11 670.93 1176.54 673.75 1103.76C674.04 1096.25 674.33 1088.7 674.62 1081.21C674.75 1078.04 674.87 1074.88 675 1071.73C677.55 1007.35 680.08 949.22 680.62 946.09C681.84 939.01 682.98 932.97 684.23 927.74C687.86 912.49 692.38 904.12 702.23 896.93C703.19 896.2 711.06 892.23 718 888.78C723.75 885.92 728.86 883.43 728.86 883.43C731.15 884.55 733.9 889.8 736.77 897.16C742.06 910.73 747.76 931.51 751.73 947.03C751.74 947.07 751.75 947.1 751.75 947.11C754.3 957.14 756.14 964.94 756.66 967.18C757.55 970.96 758.72 978.28 760.1 988.2C761.97 1001.7 764.2 1020.03 766.56 1040.83C766.8 1042.97 767.05 1045.13 767.29 1047.32C767.57 1049.81 767.85 1052.34 768.13 1054.89C768.22 1055.71 768.31 1056.53 768.4 1057.35C769.31 1065.59 770.23 1074.09 771.14 1082.73C771.9 1089.87 782.73 1095.04 783.48 1102.3C783.91 1106.57 784.81 1145.93 785.97 1158.49C786.8 1167.46 786.21 1253.39 785.88 1257.61V1257.59Z" fill="#AEC3FF"/>
<path d="M707.5 972.02C707.47 972.17 705.66 1037.12 754.52 1045.01C803.38 1052.9 770.92 1054.98 770.92 1054.98C770.92 1054.98 679 1051.07 677.48 1048.65C675.96 1046.22 707.51 972.02 707.51 972.02H707.5Z" fill="#9DB0F4"/>
<path d="M748.78 1072.89C748.78 1072.89 747.86 1073.54 746.1 1074.67C746.07 1074.68 746.04 1074.71 746.01 1074.72C738.56 1079.48 716.43 1092.45 684.23 1101.14C680.85 1102.06 677.35 1102.92 673.75 1103.73C674.04 1096.22 674.33 1088.67 674.62 1081.18C670.37 1080.85 666.29 1080.31 662.51 1079.51C662.64 1078.52 662.77 1077.53 662.9 1076.54C667 1074.86 671.07 1073.24 675 1071.7C678.2 1070.45 681.29 1069.26 684.22 1068.16C697.45 1063.13 707.26 1059.73 707.26 1059.73L746.42 1072.13L748.77 1072.88L748.78 1072.89Z" fill="#9DB0F4"/>
<path d="M759.14 1071.81C759.14 1071.81 754.11 1073.07 746.1 1074.68C746.07 1074.68 746.04 1074.68 746.01 1074.7C731.24 1077.67 706.4 1081.83 684.22 1081.61C680.95 1081.57 677.73 1081.45 674.62 1081.2C670.37 1080.87 666.29 1080.33 662.51 1079.53C654.4 1077.82 647.61 1074.92 643.17 1070.4C610.17 1036.79 661.18 916.16 671.9 904.42C684.42 890.72 707.27 885.91 719.89 884.26C720.42 884.19 720.92 884.13 721.41 884.07C725.85 883.54 728.69 883.43 728.85 883.43C728.85 883.43 727.86 886.61 726.2 892.01C725.56 894.1 724.81 896.52 723.99 899.22C716.24 924.6 701.28 974.48 694.69 1002.61C692.27 1012.9 690.98 1020.28 691.57 1022.49C694.14 1032.1 720.81 1037.04 737.7 1039.22C744.75 1040.13 750.09 1040.56 751.29 1040.65C751.37 1040.65 751.45 1040.65 751.54 1040.67L752.52 1044.67L754.86 1054.28L757.16 1063.72L759.13 1071.83L759.14 1071.81Z" fill="#AEC3FF"/>
<path d="M851.18 1129.63L737.85 1124.85L760.84 983.62L874.17 988.4L851.18 1129.63Z" fill="#233862"/>
<path d="M751.56 1040.65C751.56 1040.65 773.62 1039.11 774.73 1044.25C777.31 1056.24 755.76 1066.08 748.78 1065.41C741.8 1064.74 746.48 1039.85 751.56 1040.65Z" fill="#FFB27D"/>
<path d="M867.97 1017.08C867.97 1017.08 846.86 1010.48 844.6 1015.23C839.32 1026.29 858 1040.85 864.95 1041.81C871.9 1042.77 873.1 1017.48 867.97 1017.08Z" fill="#FFB27D"/>
<path d="M731.15 876.32C731.15 876.32 721.87 880.74 717.22 887.42C717.22 887.42 751.91 947.65 751.76 947.09C751.6 946.53 740.03 884.04 731.16 876.32H731.15Z" fill="#9DB0F4"/>
<path d="M774.36 877.16C777.42 878.31 783.27 884.32 784.6 887.63L788.72 940.21C788.72 940.21 779.91 901.62 775.43 884.18C774.29 879.75 774.5 878.4 774.36 877.15V877.16Z" fill="#9DB0F4"/>
<path d="M798.41 985.2C798.41 985.2 799.31 981.28 804.47 981.74C809.63 982.2 838.61 983.62 838.61 983.62C838.61 983.62 844.2 983.53 843.68 987.11L798.42 985.2H798.41Z" fill="#C65447"/>
<path d="M765.17 852.07C765.17 852.07 768.93 855.5 775 854.44C778.6 853.81 780.61 849.13 780.61 849.13C780.61 849.13 773.69 847.88 765.16 852.07H765.17Z" fill="white"/>
<path d="M727.73 925.97H698.39V939.13H727.73V925.97Z" fill="#EBF3FA"/>
<path d="M313.91 1501.6C311 1497.03 302.26 1485.19 290.61 1486.75C277.92 1488.46 304.63 1496.83 312.81 1501.63C310.99 1501.66 309.43 1501.51 308.29 1501.1C302.82 1499.15 293.46 1502.89 290.46 1504.2H342.51C342.15 1502.95 341.21 1500.92 338.79 1499.44C337.94 1498.92 336.22 1498.84 334 1499.01C337.09 1495.36 339.24 1483.71 330.63 1486.71C324.34 1488.9 324.35 1496.02 324.97 1500.24C323.63 1500.45 322.27 1500.66 320.93 1500.86C318.34 1487.65 309.17 1448.94 290.59 1447.91C271.76 1446.86 306.56 1488.05 318.15 1501.23C316.67 1501.41 315.24 1501.54 313.91 1501.61V1501.6Z" fill="#82B378"/>
<path d="M99.52 1504.17H2670.31C2671.92 1504.17 2673.23 1505.48 2673.23 1507.09V1508.09C2673.23 1509.7 2671.92 1511.01 2670.31 1511.01H99.52C97.91 1511.01 96.6 1509.7 96.6 1508.09V1507.1C96.6 1505.49 97.91 1504.18 99.52 1504.18V1504.17Z" fill="#2E3552"/>
</g>
</g>
<defs>
<clipPath id="clip0_1_2">
<rect width="2760" height="1840" fill="white"/>
</clipPath>
</defs>
</svg>
