<?xml version="1.0" standalone="no"?><svg xmlns="http://www.w3.org/2000/svg" viewBox="0 0 1440 320"><path fill="#6871a1" fill-opacity="1" d="M0,128L26.7,149.3C53.3,171,107,213,160,208C213.3,203,267,149,320,128C373.3,107,427,117,480,133.3C533.3,149,587,171,640,197.3C693.3,224,747,256,800,256C853.3,256,907,224,960,192C1013.3,160,1067,128,1120,106.7C1173.3,85,1227,75,1280,69.3C1333.3,64,1387,64,1413,64L1440,64L1440,320L1413.3,320C1386.7,320,1333,320,1280,320C1226.7,320,1173,320,1120,320C1066.7,320,1013,320,960,320C906.7,320,853,320,800,320C746.7,320,693,320,640,320C586.7,320,533,320,480,320C426.7,320,373,320,320,320C266.7,320,213,320,160,320C106.7,320,53,320,27,320L0,320Z"></path></svg>